<?xml version="1.0" encoding="UTF-8"?>
<svg id="Layer_1" xmlns="http://www.w3.org/2000/svg" version="1.1" xmlns:xlink="http://www.w3.org/1999/xlink" viewBox="0 0 174.97 430">
  <!-- Generator: Adobe Illustrator 29.6.1, SVG Export Plug-In . SVG Version: 2.1.1 Build 9)  -->
  <defs>
    <radialGradient id="radial-gradient" cx="-334" cy="643.37" fx="-334" fy="643.37" r="43.6" gradientTransform="translate(391.35 956.08) rotate(-.93) scale(1 -1)" gradientUnits="userSpaceOnUse">
      <stop offset="0" stop-color="#ff9e00"/>
      <stop offset=".18" stop-color="#f49304"/>
      <stop offset=".51" stop-color="#d97511"/>
      <stop offset=".93" stop-color="#ae4625"/>
      <stop offset="1" stop-color="#a73e29"/>
    </radialGradient>
    <radialGradient id="radial-gradient1" cx="-298.09" cy="645.67" fx="-298.09" fy="645.67" r="46.66" gradientTransform="translate(0 430) scale(1 -1)" gradientUnits="userSpaceOnUse">
      <stop offset="0" stop-color="#ff9e00"/>
      <stop offset=".18" stop-color="#f49304"/>
      <stop offset=".51" stop-color="#d97511"/>
      <stop offset=".93" stop-color="#ae4625"/>
      <stop offset="1" stop-color="#a73e29"/>
    </radialGradient>
    <radialGradient id="radial-gradient2" cx="-258.54" cy="645.46" fx="-258.54" fy="645.46" r="44.88" gradientTransform="translate(0 430) scale(1 -1)" gradientUnits="userSpaceOnUse">
      <stop offset="0" stop-color="#ff9e00"/>
      <stop offset=".18" stop-color="#f49304"/>
      <stop offset=".51" stop-color="#d97511"/>
      <stop offset=".93" stop-color="#ae4625"/>
      <stop offset="1" stop-color="#a73e29"/>
    </radialGradient>
    <linearGradient id="linear-gradient" x1="-295.91" y1="601.28" x2="-295.91" y2="586.01" gradientTransform="translate(391.35 956.08) rotate(-.93) scale(1 -1)" gradientUnits="userSpaceOnUse">
      <stop offset="0" stop-color="#f5d24c"/>
      <stop offset=".39" stop-color="#ebb431"/>
      <stop offset=".76" stop-color="#e59f1f"/>
      <stop offset="1" stop-color="#e39819"/>
    </linearGradient>
    <linearGradient id="linear-gradient1" x1="-295.91" y1="601.23" x2="-295.91" y2="586.1" gradientTransform="translate(391.35 956.08) rotate(-.93) scale(1 -1)" gradientUnits="userSpaceOnUse">
      <stop offset="0" stop-color="#ffdc33"/>
      <stop offset=".35" stop-color="#fcc41b"/>
      <stop offset=".74" stop-color="#faaf07"/>
      <stop offset="1" stop-color="#faa800"/>
    </linearGradient>
    <linearGradient id="linear-gradient2" x1="-268.97" y1="626.9" x2="-274.57" y2="627.06" gradientTransform="translate(391.35 956.08) rotate(-.93) scale(1 -1)" gradientUnits="userSpaceOnUse">
      <stop offset="0" stop-color="#fdd844"/>
      <stop offset=".49" stop-color="#f3b729"/>
      <stop offset="1" stop-color="#eb9910"/>
    </linearGradient>
    <linearGradient id="linear-gradient3" x1="-260.31" y1="626.98" x2="-271.77" y2="626.92" gradientTransform="translate(391.35 956.08) rotate(-.93) scale(1 -1)" gradientUnits="userSpaceOnUse">
      <stop offset=".4" stop-color="#fdd844"/>
      <stop offset=".61" stop-color="#f6c232"/>
      <stop offset=".94" stop-color="#eb9910"/>
    </linearGradient>
    <linearGradient id="linear-gradient4" x1="-270.88" y1="668.25" x2="-270.91" y2="665.32" gradientTransform="translate(391.35 956.08) rotate(-.93) scale(1 -1)" gradientUnits="userSpaceOnUse">
      <stop offset=".29" stop-color="#be7e33"/>
      <stop offset=".52" stop-color="#bd7b31"/>
      <stop offset=".67" stop-color="#ba722c"/>
      <stop offset=".81" stop-color="#b66223"/>
      <stop offset=".93" stop-color="#b04d16"/>
      <stop offset="1" stop-color="#ac3d0d"/>
    </linearGradient>
    <linearGradient id="linear-gradient5" x1="-237.81" y1="626.59" x2="-241.41" y2="626.7" gradientTransform="translate(391.35 956.08) rotate(-.93) scale(1 -1)" gradientUnits="userSpaceOnUse">
      <stop offset="0" stop-color="#fdd844"/>
      <stop offset=".49" stop-color="#f3b729"/>
      <stop offset="1" stop-color="#eb9910"/>
    </linearGradient>
    <linearGradient id="linear-gradient6" x1="-234.1" y1="626.62" x2="-239.65" y2="626.59" gradientTransform="translate(391.35 956.08) rotate(-.93) scale(1 -1)" gradientUnits="userSpaceOnUse">
      <stop offset=".4" stop-color="#fdd844"/>
      <stop offset=".61" stop-color="#f6c232"/>
      <stop offset=".94" stop-color="#eb9910"/>
    </linearGradient>
    <linearGradient id="linear-gradient7" x1="-239.17" y1="667.8" x2="-239.2" y2="665.4" gradientTransform="translate(391.35 956.08) rotate(-.93) scale(1 -1)" gradientUnits="userSpaceOnUse">
      <stop offset=".29" stop-color="#be7e33"/>
      <stop offset=".52" stop-color="#bd7b31"/>
      <stop offset=".67" stop-color="#ba722c"/>
      <stop offset=".81" stop-color="#b66223"/>
      <stop offset=".93" stop-color="#b04d16"/>
      <stop offset="1" stop-color="#ac3d0d"/>
    </linearGradient>
    <linearGradient id="linear-gradient8" x1="-349.19" y1="627.19" x2="-352.82" y2="627.29" gradientTransform="translate(391.35 956.08) rotate(-.93) scale(1 -1)" gradientUnits="userSpaceOnUse">
      <stop offset="0" stop-color="#fdd844"/>
      <stop offset=".49" stop-color="#f3b729"/>
      <stop offset="1" stop-color="#eb9910"/>
    </linearGradient>
    <linearGradient id="linear-gradient9" x1="-345.48" y1="627.22" x2="-351.05" y2="627.19" gradientTransform="translate(391.35 956.08) rotate(-.93) scale(1 -1)" gradientUnits="userSpaceOnUse">
      <stop offset=".4" stop-color="#fdd844"/>
      <stop offset=".61" stop-color="#f6c232"/>
      <stop offset=".94" stop-color="#eb9910"/>
    </linearGradient>
    <linearGradient id="linear-gradient10" x1="-317.11" y1="627.49" x2="-322.73" y2="627.66" gradientTransform="translate(391.35 956.08) rotate(-.93) scale(1 -1)" gradientUnits="userSpaceOnUse">
      <stop offset="0" stop-color="#fdd844"/>
      <stop offset=".49" stop-color="#f3b729"/>
      <stop offset="1" stop-color="#eb9910"/>
    </linearGradient>
    <linearGradient id="linear-gradient11" x1="-308.44" y1="627.59" x2="-319.92" y2="627.54" gradientTransform="translate(391.35 956.08) rotate(-.93) scale(1 -1)" gradientUnits="userSpaceOnUse">
      <stop offset=".4" stop-color="#fdd844"/>
      <stop offset=".61" stop-color="#f6c232"/>
      <stop offset=".94" stop-color="#eb9910"/>
    </linearGradient>
    <linearGradient id="linear-gradient12" x1="-319.02" y1="668.76" x2="-319.05" y2="665.83" gradientTransform="translate(391.35 956.08) rotate(-.93) scale(1 -1)" gradientUnits="userSpaceOnUse">
      <stop offset=".29" stop-color="#be7e33"/>
      <stop offset=".52" stop-color="#bd7b31"/>
      <stop offset=".67" stop-color="#ba722c"/>
      <stop offset=".81" stop-color="#b66223"/>
      <stop offset=".93" stop-color="#b04d16"/>
      <stop offset="1" stop-color="#ac3d0d"/>
    </linearGradient>
    <linearGradient id="linear-gradient13" x1="-350.56" y1="668.75" x2="-350.59" y2="665.85" gradientTransform="translate(391.35 956.08) rotate(-.93) scale(1 -1)" gradientUnits="userSpaceOnUse">
      <stop offset=".29" stop-color="#be7e33"/>
      <stop offset=".52" stop-color="#bd7b31"/>
      <stop offset=".67" stop-color="#ba722c"/>
      <stop offset=".81" stop-color="#b66223"/>
      <stop offset=".93" stop-color="#b04d16"/>
      <stop offset="1" stop-color="#ac3d0d"/>
    </linearGradient>
    <linearGradient id="linear-gradient14" x1="-342.97" y1="742.02" x2="-343.11" y2="714.13" gradientTransform="translate(391.35 956.08) rotate(-.93) scale(1 -1)" gradientUnits="userSpaceOnUse">
      <stop offset="0" stop-color="#e4c24a"/>
      <stop offset=".27" stop-color="#e0b841"/>
      <stop offset=".73" stop-color="#d69d29"/>
      <stop offset="1" stop-color="#d08b19"/>
    </linearGradient>
    <linearGradient id="linear-gradient15" x1="-251.25" y1="707.53" x2="-249.14" y2="722.17" gradientTransform="translate(391.35 956.08) rotate(-.93) scale(1 -1)" gradientUnits="userSpaceOnUse">
      <stop offset="0" stop-color="#e4c24a"/>
      <stop offset=".05" stop-color="#e1ba43"/>
      <stop offset=".23" stop-color="#d9a530"/>
      <stop offset=".42" stop-color="#d49623"/>
      <stop offset=".65" stop-color="#d08d1b"/>
      <stop offset="1" stop-color="#d08b19"/>
    </linearGradient>
    <linearGradient id="linear-gradient16" x1="-276.25" y1="805.88" x2="-302.57" y2="732.5" gradientTransform="translate(391.35 956.08) rotate(-.93) scale(1 -1)" gradientUnits="userSpaceOnUse">
      <stop offset="0" stop-color="#f5d24c"/>
      <stop offset=".25" stop-color="#f2c944"/>
      <stop offset=".65" stop-color="#ebb12f"/>
      <stop offset="1" stop-color="#e39819"/>
    </linearGradient>
    <linearGradient id="linear-gradient17" x1="-293.2" y1="809.63" x2="-294.74" y2="741.4" gradientTransform="translate(391.35 956.08) rotate(-.93) scale(1 -1)" gradientUnits="userSpaceOnUse">
      <stop offset="0" stop-color="#ffe276"/>
      <stop offset=".25" stop-color="#fcda6d"/>
      <stop offset=".64" stop-color="#f5c457"/>
      <stop offset="1" stop-color="#eeab3d"/>
    </linearGradient>
    <linearGradient id="linear-gradient18" x1="-300.51" y1="732.11" x2="-300.51" y2="739.76" gradientTransform="translate(391.35 956.08) rotate(-.93) scale(1 -1)" gradientUnits="userSpaceOnUse">
      <stop offset="0" stop-color="#efcf59"/>
      <stop offset=".27" stop-color="#ebc54f"/>
      <stop offset=".73" stop-color="#e3aa37"/>
      <stop offset="1" stop-color="#de9826"/>
    </linearGradient>
    <linearGradient id="linear-gradient19" x1="-345.19" y1="718.68" x2="-345.68" y2="733.65" gradientTransform="translate(391.35 956.08) rotate(-.93) scale(1 -1)" gradientUnits="userSpaceOnUse">
      <stop offset="0" stop-color="#f5d24c"/>
      <stop offset=".24" stop-color="#f2ca45"/>
      <stop offset=".6" stop-color="#ecb633"/>
      <stop offset="1" stop-color="#e39819"/>
    </linearGradient>
    <linearGradient id="linear-gradient20" x1="-246.77" y1="722.57" x2="-246.19" y2="731.95" gradientTransform="translate(391.35 956.08) rotate(-.93) scale(1 -1)" gradientUnits="userSpaceOnUse">
      <stop offset="0" stop-color="#efcf59"/>
      <stop offset=".58" stop-color="#e4ac38"/>
      <stop offset="1" stop-color="#de9826"/>
    </linearGradient>
    <linearGradient id="linear-gradient21" x1="-294.71" y1="723.64" x2="-294.71" y2="734.42" gradientTransform="translate(391.35 956.08) rotate(-.93) scale(1 -1)" gradientUnits="userSpaceOnUse">
      <stop offset="0" stop-color="#ffe892"/>
      <stop offset=".05" stop-color="#fde48d"/>
      <stop offset=".43" stop-color="#f5ca6f"/>
      <stop offset=".76" stop-color="#efba5d"/>
      <stop offset="1" stop-color="#eeb557"/>
    </linearGradient>
    <linearGradient id="linear-gradient22" x1="-294.6" y1="756.02" x2="-294.72" y2="732.57" gradientTransform="translate(391.35 956.08) rotate(-.93) scale(1 -1)" gradientUnits="userSpaceOnUse">
      <stop offset="0" stop-color="#ffe892"/>
      <stop offset=".24" stop-color="#fce089"/>
      <stop offset=".63" stop-color="#f6cd73"/>
      <stop offset="1" stop-color="#eeb557"/>
    </linearGradient>
    <linearGradient id="linear-gradient23" x1="-295.45" y1="573.6" x2="-294.8" y2="589.72" gradientTransform="translate(391.35 956.08) rotate(-.93) scale(1 -1)" gradientUnits="userSpaceOnUse">
      <stop offset="0" stop-color="#f5d24c"/>
      <stop offset="1" stop-color="#e39819"/>
    </linearGradient>
    <linearGradient id="linear-gradient24" x1="-294.43" y1="527.27" x2="-294.93" y2="570.38" gradientTransform="translate(391.35 956.08) rotate(-.93) scale(1 -1)" gradientUnits="userSpaceOnUse">
      <stop offset="0" stop-color="#dcbc43"/>
      <stop offset=".25" stop-color="#d9b53d"/>
      <stop offset=".6" stop-color="#d3a32e"/>
      <stop offset="1" stop-color="#ca8717"/>
    </linearGradient>
    <linearGradient id="linear-gradient25" x1="-321.36" y1="531.44" x2="-334.42" y2="569.94" gradientTransform="translate(391.35 956.08) rotate(-.93) scale(1 -1)" gradientUnits="userSpaceOnUse">
      <stop offset="0" stop-color="#dcbc43"/>
      <stop offset=".13" stop-color="#d7b039"/>
      <stop offset=".44" stop-color="#d09926"/>
      <stop offset=".74" stop-color="#cb8b1a"/>
      <stop offset="1" stop-color="#ca8717"/>
    </linearGradient>
    <linearGradient id="linear-gradient26" x1="-267.18" y1="527.77" x2="-257.09" y2="570.11" gradientTransform="translate(391.35 956.08) rotate(-.93) scale(1 -1)" gradientUnits="userSpaceOnUse">
      <stop offset="0" stop-color="#dcbc43"/>
      <stop offset=".13" stop-color="#d7b039"/>
      <stop offset=".44" stop-color="#d09926"/>
      <stop offset=".74" stop-color="#cb8b1a"/>
      <stop offset="1" stop-color="#ca8717"/>
    </linearGradient>
    <linearGradient id="linear-gradient27" x1="-295.34" y1="577.56" x2="-295.82" y2="562.42" gradientTransform="translate(391.35 956.08) rotate(-.93) scale(1 -1)" gradientUnits="userSpaceOnUse">
      <stop offset="0" stop-color="#c6a329" stop-opacity="0"/>
      <stop offset=".12" stop-color="#c29a22" stop-opacity=".15"/>
      <stop offset=".43" stop-color="#b98613" stop-opacity=".51"/>
      <stop offset=".69" stop-color="#b27809" stop-opacity=".78"/>
      <stop offset=".88" stop-color="#ae6f02" stop-opacity=".94"/>
      <stop offset="1" stop-color="#ad6c00"/>
    </linearGradient>
    <linearGradient id="linear-gradient28" x1="-366.03" y1="582.98" x2="-320.5" y2="582.98" gradientTransform="translate(391.35 956.08) rotate(-.93) scale(1 -1)" gradientUnits="userSpaceOnUse">
      <stop offset="0" stop-color="#eecc4a"/>
      <stop offset=".33" stop-color="#e6b434"/>
      <stop offset=".74" stop-color="#de9b1e"/>
      <stop offset="1" stop-color="#dc9317"/>
    </linearGradient>
    <linearGradient id="linear-gradient29" x1="-247.96" y1="574.65" x2="-248.51" y2="587.38" gradientTransform="translate(391.35 956.08) rotate(-.93) scale(1 -1)" gradientUnits="userSpaceOnUse">
      <stop offset="0" stop-color="#eecc4a"/>
      <stop offset=".33" stop-color="#e6b434"/>
      <stop offset=".74" stop-color="#de9b1e"/>
      <stop offset="1" stop-color="#dc9317"/>
    </linearGradient>
    <linearGradient id="linear-gradient30" x1="-295.17" y1="709.34" x2="-294.62" y2="723.93" gradientTransform="translate(391.35 956.08) rotate(-.93) scale(1 -1)" gradientUnits="userSpaceOnUse">
      <stop offset="0" stop-color="#e4c24a"/>
      <stop offset=".24" stop-color="#ddb13b"/>
      <stop offset=".72" stop-color="#d39522"/>
      <stop offset="1" stop-color="#d08b19"/>
    </linearGradient>
    <linearGradient id="linear-gradient31" x1="-294.44" y1="719.4" x2="-295.07" y2="659.35" gradientTransform="translate(391.35 956.08) rotate(-.93) scale(1 -1)" gradientUnits="userSpaceOnUse">
      <stop offset=".29" stop-color="#be7e33"/>
      <stop offset=".52" stop-color="#bd7b31"/>
      <stop offset=".67" stop-color="#ba722c"/>
      <stop offset=".81" stop-color="#b66223"/>
      <stop offset=".93" stop-color="#b04d16"/>
      <stop offset="1" stop-color="#ac3d0d"/>
    </linearGradient>
    <linearGradient id="linear-gradient32" x1="-294.97" y1="581.45" x2="-295.46" y2="565.98" gradientTransform="translate(391.35 956.08) rotate(-.93) scale(1 -1)" gradientUnits="userSpaceOnUse">
      <stop offset="0" stop-color="#f5d24c"/>
      <stop offset=".34" stop-color="#edb936"/>
      <stop offset=".75" stop-color="#e5a020"/>
      <stop offset="1" stop-color="#e39819"/>
    </linearGradient>
    <linearGradient id="linear-gradient33" x1="-294.42" y1="721.17" x2="-295.08" y2="659.09" gradientTransform="translate(391.35 956.08) rotate(-.93) scale(1 -1)" gradientUnits="userSpaceOnUse">
      <stop offset="0" stop-color="#fdd844"/>
      <stop offset=".05" stop-color="#fbd440"/>
      <stop offset=".68" stop-color="#efa91d"/>
      <stop offset="1" stop-color="#eb9910"/>
    </linearGradient>
    <linearGradient id="linear-gradient34" x1="-294.66" y1="701.95" x2="-294.99" y2="717.3" gradientTransform="translate(391.35 956.08) rotate(-.93) scale(1 -1)" gradientUnits="userSpaceOnUse">
      <stop offset="0" stop-color="#c6a329" stop-opacity="0"/>
      <stop offset=".12" stop-color="#c29a22" stop-opacity=".15"/>
      <stop offset=".43" stop-color="#b98613" stop-opacity=".51"/>
      <stop offset=".69" stop-color="#b27809" stop-opacity=".78"/>
      <stop offset=".88" stop-color="#ae6f02" stop-opacity=".94"/>
      <stop offset="1" stop-color="#ad6c00"/>
    </linearGradient>
    <linearGradient id="linear-gradient35" x1="-294.25" y1="854.47" x2="-294.91" y2="809.18" gradientTransform="translate(391.35 956.08) rotate(-.93) scale(1 -1)" gradientUnits="userSpaceOnUse">
      <stop offset="0" stop-color="#ffe276"/>
      <stop offset=".65" stop-color="#f2ba4d"/>
      <stop offset="1" stop-color="#eeab3d"/>
    </linearGradient>
    <linearGradient id="linear-gradient36" x1="-294.24" y1="854.48" x2="-294.9" y2="809.18" gradientTransform="translate(391.35 956.08) rotate(-.93) scale(1 -1)" gradientUnits="userSpaceOnUse">
      <stop offset="0" stop-color="#ffe276"/>
      <stop offset=".65" stop-color="#f2ba4d"/>
      <stop offset="1" stop-color="#eeab3d"/>
    </linearGradient>
    <linearGradient id="linear-gradient37" x1="-294.83" y1="857.33" x2="-294.75" y2="843.99" gradientTransform="translate(391.35 956.08) rotate(-.93) scale(1 -1)" gradientUnits="userSpaceOnUse">
      <stop offset="0" stop-color="#ffe276"/>
      <stop offset=".65" stop-color="#f2bb4d"/>
      <stop offset="1" stop-color="#eeab3d"/>
    </linearGradient>
    <linearGradient id="linear-gradient38" x1="-294.83" y1="855.68" x2="-294.79" y2="848.23" gradientTransform="translate(391.35 956.08) rotate(-.93) scale(1 -1)" gradientUnits="userSpaceOnUse">
      <stop offset="0" stop-color="#fff0b5"/>
      <stop offset=".24" stop-color="#fce9ac"/>
      <stop offset=".62" stop-color="#f6d896"/>
      <stop offset="1" stop-color="#eec279"/>
    </linearGradient>
    <linearGradient id="linear-gradient39" x1="-296.13" y1="534.55" x2="-296.15" y2="530.93" gradientTransform="translate(391.35 956.08) rotate(-.93) scale(1 -1)" gradientUnits="userSpaceOnUse">
      <stop offset=".25" stop-color="#f5d24c"/>
      <stop offset=".31" stop-color="#f2ca45"/>
      <stop offset=".58" stop-color="#eaae2d"/>
      <stop offset=".82" stop-color="#e49d1e"/>
      <stop offset="1" stop-color="#e39819"/>
    </linearGradient>
    <linearGradient id="linear-gradient40" x1="-295.81" y1="533.05" x2="-296.16" y2="540.56" gradientTransform="translate(391.35 956.08) rotate(-.93) scale(1 -1)" gradientUnits="userSpaceOnUse">
      <stop offset="0" stop-color="#f5d24c"/>
      <stop offset=".45" stop-color="#edba36"/>
      <stop offset="1" stop-color="#e39819"/>
    </linearGradient>
    <linearGradient id="linear-gradient41" x1="-296.14" y1="542.84" x2="-296.16" y2="540.03" gradientTransform="translate(391.35 956.08) rotate(-.93) scale(1 -1)" gradientUnits="userSpaceOnUse">
      <stop offset="0" stop-color="#dcbc43"/>
      <stop offset=".25" stop-color="#d9b53d"/>
      <stop offset=".6" stop-color="#d3a32e"/>
      <stop offset="1" stop-color="#ca8717"/>
    </linearGradient>
    <radialGradient id="radial-gradient3" cx="-2406.06" cy="259.33" fx="-2406.06" fy="259.33" r="25.83" gradientTransform="translate(1201.58 882.25) scale(.46 -2.18)" gradientUnits="userSpaceOnUse">
      <stop offset="0" stop-color="#ff9e00"/>
      <stop offset=".03" stop-color="#f7d552"/>
      <stop offset=".18" stop-color="#bca23e"/>
      <stop offset=".34" stop-color="#84712b"/>
      <stop offset=".5" stop-color="#54491c"/>
      <stop offset=".64" stop-color="#2f290f"/>
      <stop offset=".78" stop-color="#151207"/>
      <stop offset=".9" stop-color="#050401"/>
      <stop offset="1" stop-color="#000"/>
    </radialGradient>
    <radialGradient id="radial-gradient4" cx="-1602.15" cy="-943.05" fx="-1602.15" fy="-943.05" r="25.78" gradientTransform="translate(1550.28 7.09) rotate(63.9) scale(.66 -1.54) skewX(-48.01)" gradientUnits="userSpaceOnUse">
      <stop offset="0" stop-color="#ff9e00"/>
      <stop offset=".03" stop-color="#f7d552"/>
      <stop offset=".18" stop-color="#bca23e"/>
      <stop offset=".34" stop-color="#84712b"/>
      <stop offset=".5" stop-color="#54491c"/>
      <stop offset=".64" stop-color="#2f290f"/>
      <stop offset=".78" stop-color="#151207"/>
      <stop offset=".9" stop-color="#050401"/>
      <stop offset="1" stop-color="#000"/>
    </radialGradient>
    <radialGradient id="radial-gradient5" cx="-137.65" cy="1194.5" fx="-137.65" fy="1194.5" r="25.78" gradientTransform="translate(1429.15 1815.67) rotate(-65.06) scale(.65 -1.55) skewX(48.58)" gradientUnits="userSpaceOnUse">
      <stop offset="0" stop-color="#ff9e00"/>
      <stop offset=".03" stop-color="#f7d552"/>
      <stop offset=".18" stop-color="#bca23e"/>
      <stop offset=".34" stop-color="#84712b"/>
      <stop offset=".5" stop-color="#54491c"/>
      <stop offset=".64" stop-color="#2f290f"/>
      <stop offset=".78" stop-color="#151207"/>
      <stop offset=".9" stop-color="#050401"/>
      <stop offset="1" stop-color="#000"/>
    </radialGradient>
    <radialGradient id="radial-gradient6" cx="-2491.25" cy="259.38" fx="-2491.25" fy="259.38" r="15.79" gradientTransform="translate(1201.59 882.89) scale(.46 -2.18)" gradientUnits="userSpaceOnUse">
      <stop offset="0" stop-color="#ff9e00"/>
      <stop offset=".03" stop-color="#f7d552"/>
      <stop offset=".18" stop-color="#bca23e"/>
      <stop offset=".34" stop-color="#84712b"/>
      <stop offset=".5" stop-color="#54491c"/>
      <stop offset=".64" stop-color="#2f290f"/>
      <stop offset=".78" stop-color="#151207"/>
      <stop offset=".9" stop-color="#050401"/>
      <stop offset="1" stop-color="#000"/>
    </radialGradient>
    <radialGradient id="radial-gradient7" cx="-1653.51" cy="-966.27" fx="-1653.51" fy="-966.27" r="15.79" gradientTransform="translate(1550.28 7.09) rotate(63.9) scale(.66 -1.54) skewX(-48.01)" gradientUnits="userSpaceOnUse">
      <stop offset="0" stop-color="#ff9e00"/>
      <stop offset=".03" stop-color="#f7d552"/>
      <stop offset=".18" stop-color="#bca23e"/>
      <stop offset=".34" stop-color="#84712b"/>
      <stop offset=".5" stop-color="#54491c"/>
      <stop offset=".64" stop-color="#2f290f"/>
      <stop offset=".78" stop-color="#151207"/>
      <stop offset=".9" stop-color="#050401"/>
      <stop offset="1" stop-color="#000"/>
    </radialGradient>
    <radialGradient id="radial-gradient8" cx="-190.03" cy="1217.46" fx="-190.03" fy="1217.46" r="15.79" gradientTransform="translate(1429.15 1815.67) rotate(-65.06) scale(.65 -1.55) skewX(48.58)" gradientUnits="userSpaceOnUse">
      <stop offset="0" stop-color="#ff9e00"/>
      <stop offset=".03" stop-color="#f7d552"/>
      <stop offset=".18" stop-color="#bca23e"/>
      <stop offset=".34" stop-color="#84712b"/>
      <stop offset=".5" stop-color="#54491c"/>
      <stop offset=".64" stop-color="#2f290f"/>
      <stop offset=".78" stop-color="#151207"/>
      <stop offset=".9" stop-color="#050401"/>
      <stop offset="1" stop-color="#000"/>
    </radialGradient>
    <radialGradient id="radial-gradient9" cx="-2324.66" cy="259.38" fx="-2324.66" fy="259.38" r="15.79" gradientTransform="translate(1201.58 881.64) scale(.46 -2.18)" gradientUnits="userSpaceOnUse">
      <stop offset="0" stop-color="#ff9e00"/>
      <stop offset=".03" stop-color="#f7d552"/>
      <stop offset=".18" stop-color="#bca23e"/>
      <stop offset=".34" stop-color="#84712b"/>
      <stop offset=".5" stop-color="#54491c"/>
      <stop offset=".64" stop-color="#2f290f"/>
      <stop offset=".78" stop-color="#151207"/>
      <stop offset=".9" stop-color="#050401"/>
      <stop offset="1" stop-color="#000"/>
    </radialGradient>
    <radialGradient id="radial-gradient10" cx="-1553.07" cy="-920.86" fx="-1553.07" fy="-920.86" r="15.79" gradientTransform="translate(1550.28 7.09) rotate(63.9) scale(.66 -1.54) skewX(-48.01)" gradientUnits="userSpaceOnUse">
      <stop offset="0" stop-color="#ff9e00"/>
      <stop offset=".03" stop-color="#f7d552"/>
      <stop offset=".18" stop-color="#bca23e"/>
      <stop offset=".34" stop-color="#84712b"/>
      <stop offset=".5" stop-color="#54491c"/>
      <stop offset=".64" stop-color="#2f290f"/>
      <stop offset=".78" stop-color="#151207"/>
      <stop offset=".9" stop-color="#050401"/>
      <stop offset="1" stop-color="#000"/>
    </radialGradient>
    <radialGradient id="radial-gradient11" cx="-87.59" cy="1172.57" fx="-87.59" fy="1172.57" r="15.79" gradientTransform="translate(1429.15 1815.67) rotate(-65.06) scale(.65 -1.55) skewX(48.58)" gradientUnits="userSpaceOnUse">
      <stop offset="0" stop-color="#ff9e00"/>
      <stop offset=".03" stop-color="#f7d552"/>
      <stop offset=".18" stop-color="#bca23e"/>
      <stop offset=".34" stop-color="#84712b"/>
      <stop offset=".5" stop-color="#54491c"/>
      <stop offset=".64" stop-color="#2f290f"/>
      <stop offset=".78" stop-color="#151207"/>
      <stop offset=".9" stop-color="#050401"/>
      <stop offset="1" stop-color="#000"/>
    </radialGradient>
    <clipPath id="clippath">
      <polygon points="61.42 282.82 62.95 377.37 110.88 376.59 108.89 254.08 61.66 254.41 61.42 282.82" fill="none"/>
    </clipPath>
    <radialGradient id="radial-gradient12" cx="-293.41" cy="646.71" fx="-293.41" fy="646.71" r="39.69" gradientTransform="translate(391.36 956.08) rotate(-.93) scale(1 -1)" gradientUnits="userSpaceOnUse">
      <stop offset="0" stop-color="#801500"/>
      <stop offset=".73" stop-color="#bd6c36"/>
      <stop offset="1" stop-color="#801500"/>
    </radialGradient>
    <radialGradient id="radial-gradient13" cx="-293.41" cy="646.71" fx="-293.41" fy="646.71" r="19.85" gradientTransform="translate(391.35 956.08) rotate(-.93) scale(1 -1)" gradientUnits="userSpaceOnUse">
      <stop offset=".15" stop-color="#fff"/>
      <stop offset=".18" stop-color="#f4eae8"/>
      <stop offset=".27" stop-color="#dcb8b2"/>
      <stop offset=".35" stop-color="#ca938a"/>
      <stop offset=".41" stop-color="#bf7d71"/>
      <stop offset=".45" stop-color="#bb7569"/>
      <stop offset=".55" stop-color="#a85748"/>
      <stop offset=".68" stop-color="#923321"/>
      <stop offset=".78" stop-color="#851d08"/>
      <stop offset=".85" stop-color="#801500"/>
      <stop offset=".86" stop-color="#841902"/>
      <stop offset=".87" stop-color="#902509"/>
      <stop offset=".88" stop-color="#a53a15"/>
      <stop offset=".89" stop-color="#c25725"/>
      <stop offset=".9" stop-color="#e67b3a"/>
      <stop offset=".91" stop-color="#d4692f"/>
      <stop offset=".92" stop-color="#b54a1e"/>
      <stop offset=".94" stop-color="#9e3311"/>
      <stop offset=".96" stop-color="#8d2207"/>
      <stop offset=".98" stop-color="#831801"/>
      <stop offset="1" stop-color="#801500"/>
    </radialGradient>
    <radialGradient id="radial-gradient14" cx="-293.41" cy="646.71" fx="-293.41" fy="646.71" r="16.54" gradientTransform="translate(391.35 956.08) rotate(-.93) scale(1 -1)" gradientUnits="userSpaceOnUse">
      <stop offset=".15" stop-color="#fff"/>
      <stop offset=".28" stop-color="#c2c2c2"/>
      <stop offset=".43" stop-color="#878787"/>
      <stop offset=".56" stop-color="#575757"/>
      <stop offset=".69" stop-color="#313131"/>
      <stop offset=".81" stop-color="#161616"/>
      <stop offset=".92" stop-color="#050505"/>
      <stop offset="1" stop-color="#000"/>
    </radialGradient>
    <clipPath id="clippath-1">
      <polygon points="29.83 283.34 31.36 377.88 61.3 377.39 59.32 254.88 29.85 257.33 29.83 283.34" fill="none"/>
    </clipPath>
    <radialGradient id="radial-gradient15" cx="-1919.84" cy="644.96" fx="-1919.84" fy="644.96" r="39.69" gradientTransform="translate(1094.87 961.57) scale(.55 -1)" gradientUnits="userSpaceOnUse">
      <stop offset="0" stop-color="#801500"/>
      <stop offset=".73" stop-color="#bd6c36"/>
      <stop offset="1" stop-color="#801500"/>
    </radialGradient>
    <radialGradient id="radial-gradient16" cx="-1919.84" cy="644.96" fx="-1919.84" fy="644.96" r="19.85" gradientTransform="translate(1094.87 961.57) scale(.55 -1)" gradientUnits="userSpaceOnUse">
      <stop offset=".15" stop-color="#fff"/>
      <stop offset=".18" stop-color="#f4eae8"/>
      <stop offset=".27" stop-color="#dcb8b2"/>
      <stop offset=".35" stop-color="#ca938a"/>
      <stop offset=".41" stop-color="#bf7d71"/>
      <stop offset=".45" stop-color="#bb7569"/>
      <stop offset=".55" stop-color="#a85748"/>
      <stop offset=".68" stop-color="#923321"/>
      <stop offset=".78" stop-color="#851d08"/>
      <stop offset=".85" stop-color="#801500"/>
      <stop offset=".86" stop-color="#841902"/>
      <stop offset=".87" stop-color="#902509"/>
      <stop offset=".88" stop-color="#a53a15"/>
      <stop offset=".89" stop-color="#c25725"/>
      <stop offset=".9" stop-color="#e67b3a"/>
      <stop offset=".91" stop-color="#d4692f"/>
      <stop offset=".92" stop-color="#b54a1e"/>
      <stop offset=".94" stop-color="#9e3311"/>
      <stop offset=".96" stop-color="#8d2207"/>
      <stop offset=".98" stop-color="#831801"/>
      <stop offset="1" stop-color="#801500"/>
    </radialGradient>
    <radialGradient id="radial-gradient17" cx="-1919.84" cy="644.96" fx="-1919.84" fy="644.96" r="16.54" gradientTransform="translate(1094.87 961.57) scale(.55 -1)" gradientUnits="userSpaceOnUse">
      <stop offset=".15" stop-color="#fff"/>
      <stop offset=".28" stop-color="#c2c2c2"/>
      <stop offset=".43" stop-color="#878787"/>
      <stop offset=".56" stop-color="#575757"/>
      <stop offset=".69" stop-color="#313131"/>
      <stop offset=".81" stop-color="#161616"/>
      <stop offset=".92" stop-color="#050505"/>
      <stop offset="1" stop-color="#000"/>
    </radialGradient>
    <clipPath id="clippath-2">
      <polygon points="108.36 282.06 109.89 376.6 143.01 376.07 141.03 253.56 108.39 254.09 108.36 282.06" fill="none"/>
    </clipPath>
    <radialGradient id="radial-gradient18" cx="4915.28" cy="645.56" fx="4915.28" fy="645.56" r="39.69" gradientTransform="translate(2807.08 960.29) rotate(-180) scale(.55 1)" gradientUnits="userSpaceOnUse">
      <stop offset="0" stop-color="#801500"/>
      <stop offset=".73" stop-color="#bd6c36"/>
      <stop offset="1" stop-color="#801500"/>
    </radialGradient>
    <radialGradient id="radial-gradient19" cx="4915.28" cy="645.56" fx="4915.28" fy="645.56" r="19.85" gradientTransform="translate(2807.08 960.29) rotate(-180) scale(.55 1)" gradientUnits="userSpaceOnUse">
      <stop offset=".15" stop-color="#fff"/>
      <stop offset=".18" stop-color="#f4eae8"/>
      <stop offset=".27" stop-color="#dcb8b2"/>
      <stop offset=".35" stop-color="#ca938a"/>
      <stop offset=".41" stop-color="#bf7d71"/>
      <stop offset=".45" stop-color="#bb7569"/>
      <stop offset=".55" stop-color="#a85748"/>
      <stop offset=".68" stop-color="#923321"/>
      <stop offset=".78" stop-color="#851d08"/>
      <stop offset=".85" stop-color="#801500"/>
      <stop offset=".86" stop-color="#841902"/>
      <stop offset=".87" stop-color="#902509"/>
      <stop offset=".88" stop-color="#a53a15"/>
      <stop offset=".89" stop-color="#c25725"/>
      <stop offset=".9" stop-color="#e67b3a"/>
      <stop offset=".91" stop-color="#d4692f"/>
      <stop offset=".92" stop-color="#b54a1e"/>
      <stop offset=".94" stop-color="#9e3311"/>
      <stop offset=".96" stop-color="#8d2207"/>
      <stop offset=".98" stop-color="#831801"/>
      <stop offset="1" stop-color="#801500"/>
    </radialGradient>
    <radialGradient id="radial-gradient20" cx="4915.28" cy="645.56" fx="4915.28" fy="645.56" r="16.54" gradientTransform="translate(2807.08 960.29) rotate(-180) scale(.55 1)" gradientUnits="userSpaceOnUse">
      <stop offset=".15" stop-color="#fff"/>
      <stop offset=".28" stop-color="#c2c2c2"/>
      <stop offset=".43" stop-color="#878787"/>
      <stop offset=".56" stop-color="#575757"/>
      <stop offset=".69" stop-color="#313131"/>
      <stop offset=".81" stop-color="#161616"/>
      <stop offset=".92" stop-color="#050505"/>
      <stop offset="1" stop-color="#000"/>
    </radialGradient>
    <linearGradient id="linear-gradient42" x1="-294.16" y1="825.91" x2="-294.74" y2="800.65" gradientTransform="translate(391.35 956.08) rotate(-.93) scale(1 -1)" gradientUnits="userSpaceOnUse">
      <stop offset="0" stop-color="#f5d24c"/>
      <stop offset=".25" stop-color="#f3cd48"/>
      <stop offset=".53" stop-color="#efc03c"/>
      <stop offset=".8" stop-color="#e9ab2a"/>
      <stop offset="1" stop-color="#e39819"/>
    </linearGradient>
    <linearGradient id="linear-gradient43" x1="-294.21" y1="823.35" x2="-294.55" y2="808.49" gradientTransform="translate(391.35 956.08) rotate(-.93) scale(1 -1)" gradientUnits="userSpaceOnUse">
      <stop offset="0" stop-color="#fff0b5"/>
      <stop offset=".24" stop-color="#fce9ac"/>
      <stop offset=".62" stop-color="#f6d896"/>
      <stop offset="1" stop-color="#eec279"/>
    </linearGradient>
    <linearGradient id="linear-gradient44" x1="83.88" y1="430.03" x2="81.81" y2="317.02" gradientTransform="translate(0 430) scale(1 -1)" gradientUnits="userSpaceOnUse">
      <stop offset="0" stop-color="#ffe276"/>
      <stop offset=".25" stop-color="#fcda6d"/>
      <stop offset=".64" stop-color="#f5c457"/>
      <stop offset="1" stop-color="#eeab3d"/>
    </linearGradient>
  </defs>
  <g isolation="isolate">
    <g id="Layer_2">
      <g id="Layer_1-2">
        <g>
          <g>
            <polygon points="31.28 264.33 31.36 377.88 61.3 377.39 62.56 258.56 31.28 264.33" fill="url(#radial-gradient)"/>
            <polygon points="61.42 282.82 62.95 377.37 110.88 376.59 108.89 254.08 61.66 254.41 61.42 282.82" fill="url(#radial-gradient1)"/>
            <polygon points="108.36 282.06 109.89 376.6 143.01 376.07 141.03 253.56 108.39 254.09 108.36 282.06" fill="url(#radial-gradient2)"/>
            <g>
              <polygon points="141.27 373.57 141.17 367.7 110.15 365.19 61.89 365.97 30.78 369.29 30.66 375.28 141.27 373.57" fill="url(#linear-gradient)"/>
              <polygon points="141.18 367.7 141.2 369.19 110.17 366.67 61.91 367.45 30.81 370.77 30.72 375.28 30.66 375.28 30.78 369.29 61.88 365.97 110.15 365.19 141.18 367.7" fill="url(#linear-gradient1)"/>
            </g>
            <g>
              <polygon points="112.48 293.17 112.48 295.43 112.42 373.73 112.43 374.04 106.83 374.03 106.89 295.52 106.89 293.16 109.79 293.17 112.48 293.17" fill="url(#linear-gradient2)"/>
              <g>
                <rect x="109.76" y="293.17" width="2.7" height="80.9" fill="url(#linear-gradient3)"/>
                <polygon points="112.47 292.53 112.47 294.8 106.88 294.89 106.88 292.52 109.78 292.53 112.47 292.53" fill="url(#linear-gradient4)" isolation="isolate" opacity=".52"/>
              </g>
            </g>
            <g>
              <polygon points="142.59 292.47 142.61 294.31 143.32 374.1 143.33 374.41 140.9 374.36 140.18 294.35 140.16 292.41 141.42 292.45 142.59 292.47" fill="url(#linear-gradient5)"/>
              <polygon points="142.59 292.47 143.33 374.45 142.16 374.42 141.42 292.44 142.59 292.47" fill="url(#linear-gradient6)"/>
              <polygon points="142.59 292.47 142.61 294.31 140.18 294.35 140.16 292.41 141.42 292.45 142.59 292.47" fill="url(#linear-gradient7)" isolation="isolate" opacity=".52"/>
            </g>
            <g>
              <polygon points="31.2 293.1 31.2 293.31 31.22 295.61 31.94 375.9 31.95 376.22 29.52 376.16 28.79 295.64 28.77 293.3 28.76 293.03 30.02 293.07 31.2 293.1" fill="url(#linear-gradient8)"/>
              <polygon points="31.19 293.1 31.95 376.25 30.78 376.23 30.02 293.07 31.19 293.1" fill="url(#linear-gradient9)"/>
            </g>
            <g>
              <polygon points="64.32 292.8 64.32 295.07 64.28 374.46 64.28 374.77 58.69 374.77 58.73 295.16 58.73 292.79 61.58 292.8 64.32 292.8" fill="url(#linear-gradient10)"/>
              <rect x="61.61" y="292.75" width="2.7" height="82.06" fill="url(#linear-gradient11)"/>
              <polygon points="64.32 292.8 61.58 292.8 58.73 292.79 58.73 295.16 64.32 295.07 64.32 292.8" fill="url(#linear-gradient12)" isolation="isolate" opacity=".52"/>
              <polygon points="31.2 293.31 31.22 295.61 28.79 295.64 28.77 293.3 30.11 293.31 31.2 293.31" fill="url(#linear-gradient13)" isolation="isolate" opacity=".52"/>
            </g>
            <polygon points="13.4 240.87 26.76 246.33 59.89 244.48 55.31 237.56 13.4 240.87" fill="url(#linear-gradient14)"/>
            <polygon points="109 245.66 142.32 245.03 151.09 237.92 114.73 236.59 109 245.66 109 245.66" fill="url(#linear-gradient15)"/>
            <path d="M137.16,221.59l-26.81.43-18.38.29-2.18.04-57.06.9c-18.77-34.75,18.63-46.58,45.11-62.62,2.23-1.35,4.39-2.73,6.43-4.16.04.02.07.05.1.07.38.24.75.48,1.14.73,0,0,.02,0,.03.02,1.56.99,3.19,1.95,4.86,2.9,26.91,15.3,64.49,25.89,46.76,61.42v-.02Z" fill="url(#linear-gradient16)"/>
            <path d="M114.37,205.33c.09,5.66-1.12,11.29-4.02,16.68h0l-18.37.28-2.18.04-30.39.46c-12.01-20.66,2.71-45.8,19.36-61.42,1.86-1.74,3.74-3.36,5.61-4.85.03-.03.06-.05.09-.08.35.26.7.52,1.05.8,0,0,.02,0,.03.02,1.44,1.1,2.86,2.27,4.27,3.51,12.79,11.21,24.29,27.95,24.56,44.55h0Z" fill="url(#linear-gradient17)"/>
            <polygon points="144.79 228.26 115.34 226.25 114.91 226.22 54.19 227.56 13.24 231.16 32.61 223.2 58.87 220.66 110.64 219.82 137.16 221.59 144.79 228.26" fill="url(#linear-gradient18)"/>
            <polygon points="55.31 237.56 13.4 240.87 13.24 231.16 54.19 227.56 55.31 237.56" fill="url(#linear-gradient19)"/>
            <path d="M150.93,228.6l.15,9.32c-.11,0-36.25-1.35-36.36-1.33l.62-10.34,35.59,2.35h0Z" fill="url(#linear-gradient20)"/>
            <polygon points="115.34 226.25 114.73 236.59 55.31 237.56 54.19 227.56 56.78 227.33 115.34 226.25" fill="url(#linear-gradient21)"/>
            <polygon points="115.34 226.25 54.19 227.56 58.26 220.68 110.64 219.82 111.41 219.85 115.34 226.25" fill="url(#linear-gradient22)"/>
            <polygon points="157.58 380.76 116.24 381.33 56.55 382.3 16.33 382.3 15.96 382.3 16.3 382.1 28.12 375.08 61.37 374.54 109.65 374.06 112.2 374.04 145.08 373.51 157.58 380.76" fill="url(#linear-gradient23)"/>
            <polygon points="157.58 380.76 153.8 384.6 149.25 389.25 145.14 393.42 137.38 397.34 95.56 418.42 76.79 418.72 36.24 398.98 28.72 395.31 24.51 391.1 19.49 386.08 16.46 383.05 16.33 382.3 56.55 382.3 116.24 381.33 157.58 380.76" fill="url(#linear-gradient24)"/>
            <polygon points="76.79 418.72 36.24 398.98 28.72 395.31 24.51 391.1 70.29 390.36 72.14 398.39 76.79 418.72" fill="url(#linear-gradient25)"/>
            <polygon points="149.25 389.25 145.14 393.42 137.38 397.34 95.56 418.42 99.55 397.95 101.14 389.86 149.25 389.25" fill="url(#linear-gradient26)"/>
            <polygon points="153.8 384.6 149.25 389.25 145.14 393.42 137.38 397.34 36.24 398.98 28.72 395.31 24.51 391.1 19.49 386.08 56.61 386.09 116.3 385.12 153.8 384.6" fill="url(#linear-gradient27)" isolation="isolate" opacity=".57"/>
            <polygon points="61.37 374.54 57.26 382.29 56.55 382.3 16.33 382.3 15.96 382.3 16.3 382.1 28.12 375.08 61.37 374.54" fill="url(#linear-gradient28)"/>
            <polygon points="157.58 380.76 116.24 381.33 113.83 381.37 109.65 374.06 112.2 374.04 145.08 373.51 157.58 380.76" fill="url(#linear-gradient29)"/>
            <polygon points="110.12 243.75 114.73 236.59 55.31 237.56 59.53 244.16 59.91 247.36 110.12 243.75" fill="url(#linear-gradient30)"/>
            <path d="M143.33,246.3l.76,46.87-5.25.09-.05-3.34c-.05-2.81-1.24-5.47-3.32-7.37l-.04-2.4c-.04-2.25-1.27-4.31-3.24-5.39-.02-1.3-.31-2.55-.84-3.7-.53-1.14-1.3-2.18-2.27-3.03l-3.9-3.42-4.14,3.76c-1.33,1.22-2.08,2.94-2.05,4.75l.02,1.52-.92.59c-1.72,1.1-2.74,3.02-2.71,5.05l.06,3.54h-.84l.15,9.43s-1.3.05-4.08.09l-6.29.1-.11-6.76c-.03-1.62-.69-3.17-1.87-4.29l-1.79-1.73-.03-1.97c-.03-2.06-1.1-3.96-2.84-5.06l-2.15-1.36-.02-1.13c-.03-2.15-1.2-4.13-3.08-5.21l-6.34-3.64-7.24,4.17c-2.07,1.19-3.32,3.4-3.28,5.79v.17l-1.88,1.22c-1.88,1.23-3,3.34-2.97,5.6l.04,2.23-1.52,1.11c-1.71,1.26-2.72,3.27-2.68,5.4l.08,4.84-9.85.16-.15-9.14-1,.02-.04-2.58c-.04-2.64-1.43-5.09-3.67-6.49-.02-1.38-.34-2.74-.92-3.96-.58-1.22-1.41-2.33-2.47-3.23l-3.09-2.64-3.78,3.54c-1.88,1.77-2.93,4.24-2.89,6.83-.97.58-1.74,1.39-2.27,2.34-.53.94-.82,2.03-.8,3.16l.04,2.4c-1,.99-1.78,2.15-2.31,3.42-.52,1.27-.79,2.65-.76,4.05l.05,3.34-5.24.08-.75-46.16c11.43-.82,22.79-1.46,34.08-1.9,16.2-.65,32.26-.91,48.16-.74,11.51.1,22.94.43,34.28.98h.02,0Z" fill="url(#linear-gradient31)"/>
            <polygon points="157.58 380.76 145.14 393.42 28.72 395.31 16.46 383.05 16.33 382.3 56.55 382.3 116.24 381.33 157.58 380.76" fill="url(#linear-gradient32)"/>
            <path d="M143.3,244.66l.79,48.51-5.25.09-.08-4.98c-.05-2.81-1.24-5.47-3.32-7.37l-.04-2.4c-.04-2.25-1.27-4.31-3.24-5.39-.02-1.3-.31-2.55-.84-3.7-.53-1.14-1.3-2.18-2.27-3.03l-3.9-3.42-4.14,3.76c-1.33,1.22-2.08,2.94-2.05,4.74l.02,1.53-.92.59c-1.72,1.1-2.74,3.01-2.71,5.05l.06,3.54h-.84l.18,11.07s-1.3.05-4.08.09l-6.29.1-.14-8.4c-.03-1.62-.69-3.17-1.87-4.3l-1.79-1.72-.03-1.97c-.03-2.06-1.1-3.96-2.84-5.06l-2.15-1.36-.02-1.13c-.03-2.15-1.2-4.13-3.08-5.21l-6.34-3.64-7.24,4.17c-2.07,1.19-3.32,3.4-3.28,5.79v.17l-1.88,1.22c-1.88,1.23-3,3.34-2.97,5.6l.04,2.23-1.52,1.11c-1.71,1.26-2.72,3.27-2.68,5.4l.11,6.48-9.85.16-.17-10.78-1,.02-.04-2.58c-.04-2.65-1.43-5.09-3.67-6.49-.02-1.39-.34-2.74-.92-3.97-.58-1.22-1.41-2.33-2.47-3.22l-3.09-2.64-3.78,3.54c-1.88,1.77-2.93,4.24-2.89,6.83-.97.58-1.74,1.39-2.27,2.34-.53.94-.82,2.03-.8,3.16l.04,2.4c-1,.99-1.78,2.15-2.31,3.42-.52,1.27-.79,2.65-.76,4.05l.08,4.98-5.24.08-.78-47.8c11.43-.82,22.79-1.46,34.08-1.9,16.2-.65,32.26-.91,48.16-.74,11.51.1,22.94.43,34.28.98h.02-.02Z" fill="url(#linear-gradient33)"/>
            <path d="M143.3,244.66l.31,18.86c-25.34-6.2-81.39-5.51-116.54,1.68l-.31-18.87c39.68-2.86,78.56-3.51,116.54-1.67h0Z" fill="url(#linear-gradient34)"/>
            <g>
              <path d="M101.67,127.17c-.14-.59-.29-1.19-.49-1.77-.19-.57-.41-1.14-.65-1.69-.16-.36-.32-.7-.49-1.02-.17-.34-.36-.66-.54-.99-.19-.32-.39-.64-.61-.94-.2-.31-.42-.62-.65-.91-.52-.7-1.13-1.38-1.77-2.01-.21-.21-.42-.4-.65-.62-.89-.79-1.84-1.5-2.87-2.1,0,0,0-.02-.02-.02-.51-.3-1.03-.58-1.56-.83-.54-.27-1.09-.5-1.67-.7-.29-.1-.57-.2-.86-.29-.29-.1-.58-.17-.87-.25-.19-.05-.2-.06-.03-.01-.07-.01-.15-.02-.23-.04-.19-.05-.36-.09-.56-.13h-.01s-.04-.02-.06-.01c-.53-.12-1.07-.2-1.6-.27-.8-.09-1.61-.13-2.44-.12-.96.01-1.91.11-2.85.27-.54.09-1.06.2-1.58.34h-.02c-.21.05-.39.12-.61.18-.16.04-.3.07-.46.13-.29.1-.57.2-.85.3-.57.22-1.11.46-1.67.73-1.34.67-2.59,1.5-3.73,2.45-.46.39-.89.8-1.32,1.21-3.4,3.47-5.47,8.24-5.38,13.45,0,.24.02.48.03.73.05.92.17,1.84.35,2.72.04.22.1.45.14.67.25,1,.57,1.97.97,2.9.1.2.17.39.27.57.33.72.7,1.4,1.1,2.05.16.23.3.47.47.69.17.24.34.5.52.73.19.23.37.47.56.69.38.46.79.9,1.21,1.32.19.18.39.38.59.54,1.11,1.02,2.37,1.91,3.7,2.62.21.12.44.22.66.33.05.04.11.06.16.07v.02s.02,0,.03,0,.02,0,.04,0c.24.12.47.23.72.33h.01c.09.03.17.07.25.1.47.2.96.37,1.44.53.57.18,1.18.32,1.77.44.31.06.62.12.91.17,1.02.16,2.06.22,3.13.21.35,0,.69-.03,1.03-.05.62-.04,1.2-.11,1.79-.21.92-.15,1.84-.37,2.72-.67.27-.09.54-.19.82-.29.4-.15.8-.32,1.19-.51h.01c.28-.12.54-.26.81-.39h0s.01,0,.01-.02c.41-.2.83-.42,1.21-.68.25-.16.51-.32.74-.5,1.74-1.19,3.26-2.68,4.5-4.36.17-.22.33-.46.48-.69.17-.23.33-.49.49-.74.3-.51.58-1.05.84-1.59.14-.28.25-.55.37-.82.12-.28.22-.55.33-.83.01-.02.01-.05.02-.07.1-.24.17-.5.27-.75.04-.21.12-.4.16-.62.07-.21.13-.41.16-.64.05-.2.1-.38.13-.57.07-.3.13-.58.17-.89,0-.02,0-.06.02-.09.03-.27.06-.54.08-.8.01-.05.01-.1.01-.13.03-.29.05-.59.07-.88.02-.41.03-.83.02-1.26-.02-1.27-.17-2.53-.42-3.74h.04ZM94.77,141.72c-.28.32-.57.62-.88.89-.14.13-.27.24-.4.36-.61.53-1.25,1-1.94,1.43-.21.13-.41.27-.64.38-.08.04-.16.09-.24.12h-.01c-.06.05-.13.08-.2.13-.06.04-.14.07-.21.11-.04.02-.1.05-.13.06-.35.17-.71.33-1.07.47h-.01c-.05.03-.1.05-.16.06-.23.1-.48.18-.71.25-.25.09-.49.15-.73.21-.03.02-.05.03-.07.03-.48.13-.94.22-1.42.3-.3.06-.62.11-.92.13-.48.05-.94.08-1.41.1h-.28c-.47,0-.92-.03-1.38-.06-.05,0-.12,0-.17,0-.37-.04-.74-.1-1.09-.16-.14,0-.29-.04-.42-.09-.27-.03-.53-.1-.79-.18-.44-.11-.85-.23-1.26-.37-.03,0-.05-.02-.08-.04h-.01s-.02,0-.03,0c-.48-.16-.93-.35-1.39-.57-.04-.03-.12-.05-.16-.09h0c-.17-.07-.34-.17-.5-.25-.22-.12-.45-.23-.66-.37-.2-.12-.41-.25-.62-.4-.42-.25-.82-.55-1.19-.87-.2-.14-.38-.3-.56-.47s-.36-.34-.54-.52c-.36-.34-.7-.7-1.01-1.08-.17-.18-.31-.38-.46-.57-.46-.58-.87-1.21-1.22-1.87-.14-.21-.25-.44-.35-.66-.22-.45-.44-.9-.61-1.37-.1-.23-.18-.48-.24-.72-.08-.24-.16-.48-.22-.72-.08-.27-.15-.52-.2-.8-.1-.49-.18-.98-.24-1.48-.02-.24-.05-.51-.06-.75h0c-.01-.11-.01-.19-.01-.28v-.12c-.01-.14-.01-.28-.03-.41,0-.37,0-.73.03-1.08,0-.17.01-.33.03-.5.04-.59.14-1.18.25-1.77.06-.31.14-.64.23-.94.04-.17.09-.35.14-.52.06-.23.15-.47.23-.71.05-.15.13-.31.19-.47.09-.24.19-.48.31-.73.13-.29.28-.57.41-.84.03-.05.05-.11.08-.15.13-.23.28-.47.4-.7.11-.15.19-.29.29-.44.14-.21.3-.44.47-.66.22-.3.45-.58.69-.86.22-.28.47-.52.7-.77.31-.31.62-.59.92-.86.17-.15.36-.3.54-.44.07-.09.17-.15.24-.2.27-.19.52-.39.8-.56.28-.19.56-.36.86-.53.34-.19.68-.38,1.03-.54.07-.04.15-.09.23-.12.07-.03.16-.06.23-.1.22-.11.45-.2.67-.28.01-.01.02-.01.05-.02.22-.1.46-.17.69-.23.23-.1.48-.16.73-.22.13-.04.25-.09.38-.11h.02c.1-.04.21-.06.33-.07.25-.07.51-.11.76-.15.25-.05.51-.1.76-.12.52-.06,1.03-.1,1.56-.11.66-.01,1.28.01,1.91.1.27.02.54.06.81.11l.19.03s.06.01.1.02c.03-.01.06,0,.11.01.03,0,.05.01.09.02.04.01.07.01.11.02.06.01.14.03.21.04.31.06.63.15.93.23.19.04.4.11.59.19.25.06.51.15.74.26.06.03.14.05.2.07.07.02.14.05.2.09.12.04.22.09.33.14.34.15.68.31.99.49.33.17.65.35.96.54.3.18.59.39.9.6.3.2.58.45.86.68s.54.47.81.72c.11.1.19.2.29.29.11.1.18.2.28.29.03.03.05.04.06.06.11.11.2.22.3.34.16.16.29.33.4.49.98,1.2,1.77,2.55,2.35,4,.12.3.23.59.33.91.1.29.18.58.25.88.05.18.1.35.14.53.08.37.15.74.2,1.13.04.23.06.5.1.74.05.41.06.85.07,1.27,0,.21,0,.41-.01.64v.16c0,.07,0,.17-.01.24-.02.22-.03.46-.04.68-.02.2-.05.39-.07.61-.03.24-.07.49-.12.74-.04.24-.1.48-.16.72-.04.22-.1.44-.17.66-.2.74-.46,1.44-.78,2.13-.08.2-.18.39-.27.58-.12.25-.25.49-.39.72-.11.19-.22.39-.34.58-.15.22-.29.44-.44.64-.14.21-.27.39-.42.58-.15.2-.3.38-.46.56-.15.18-.29.35-.45.51v.02Z" fill="url(#linear-gradient35)"/>
              <path d="M101.67,127.17c-.14-.59-.29-1.19-.49-1.77-.18-.58-.4-1.15-.65-1.69-.16-.36-.32-.7-.49-1.02-.17-.34-.36-.66-.54-.99-.19-.32-.39-.64-.61-.94-.2-.31-.42-.62-.65-.91-.52-.7-1.13-1.38-1.77-2.01-.21-.21-.42-.4-.65-.62-.89-.79-1.84-1.5-2.87-2.1,0,0,0-.02-.02-.02-.51-.3-1.03-.58-1.56-.83-.54-.27-1.09-.5-1.67-.7-.29-.1-.57-.2-.86-.29-.29-.1-.58-.17-.87-.25-.19-.05-.2-.06-.03-.01-.07-.01-.15-.04-.23-.05-.18-.05-.36-.1-.56-.12h-.01s-.04-.02-.06-.01c-.53-.12-1.07-.2-1.6-.27-.8-.11-1.61-.14-2.44-.13-.96.01-1.91.11-2.85.27-.54.08-1.07.2-1.59.33-.35.09-.35.09-.02.01-.2.06-.4.11-.59.18h-.01c-.16.03-.29.09-.45.14-.29.1-.57.2-.85.3-.57.22-1.11.46-1.67.73-1.34.67-2.59,1.5-3.73,2.45-.46.39-.89.8-1.32,1.21-3.4,3.47-5.47,8.24-5.38,13.45,0,.24.02.48.03.73.05.92.17,1.84.35,2.72.04.22.1.45.14.67.25,1,.57,1.97.97,2.9.1.2.17.39.27.57.33.72.7,1.4,1.1,2.05.16.23.3.47.47.69.17.24.34.5.52.73.19.23.37.47.56.69.38.46.79.9,1.21,1.32.19.18.39.38.59.54,1.11,1.02,2.37,1.91,3.7,2.62.21.12.44.22.66.33.05.04.11.06.16.07h.01s.01.03.02.03c.01,0,.02,0,.04,0,.24.12.47.23.72.33h.01c.09.03.17.07.25.1.47.2.96.37,1.44.53.57.18,1.18.32,1.77.44.31.06.62.12.91.17,1.02.16,2.06.22,3.13.21.35,0,.69-.03,1.03-.05.62-.04,1.2-.11,1.79-.21.92-.15,1.84-.37,2.72-.67.27-.09.54-.19.82-.29.4-.15.8-.32,1.19-.51h.01c.28-.12.54-.26.81-.39h0s.01,0,.01-.02c.41-.2.83-.42,1.21-.68.25-.16.51-.32.74-.5,1.74-1.19,3.26-2.68,4.5-4.36.17-.22.33-.46.48-.69.17-.23.33-.49.49-.74.3-.51.58-1.05.84-1.59.14-.28.25-.55.37-.82.12-.28.22-.55.33-.83.01-.02.01-.05.02-.07.1-.24.17-.5.27-.75.04-.21.12-.4.16-.62.07-.21.13-.41.16-.64.05-.2.1-.38.13-.57.07-.3.13-.58.17-.89,0-.02,0-.06.02-.09.03-.27.06-.54.08-.8.01-.05.01-.1.01-.13.03-.29.05-.59.07-.88.01-.18.02-.36.02-.54,0-.23.01-.49.01-.72-.02-1.27-.17-2.53-.44-3.74h.04ZM94.77,141.72c-.28.32-.57.62-.88.89-.14.13-.27.24-.4.36-.61.53-1.25,1-1.94,1.43-.21.13-.41.27-.64.38-.08.04-.16.09-.23.14h-.02c-.07.03-.14.07-.2.11s-.14.07-.21.11c-.04.02-.1.05-.13.06-.35.17-.71.33-1.07.47h-.01c-.05.03-.1.05-.16.06-.23.1-.48.18-.71.25-.25.09-.49.15-.73.21-.03.02-.05.03-.07.03-.48.13-.94.22-1.42.3-.3.06-.62.11-.92.13-.48.05-.94.08-1.41.1h-.28c-.47,0-.92-.03-1.38-.06-.05,0-.12,0-.17,0-.37-.04-.74-.1-1.09-.16-.14,0-.29-.04-.42-.09-.27-.03-.53-.1-.79-.18-.44-.11-.85-.23-1.26-.37-.03,0-.05-.02-.08-.04h-.01s-.02,0-.03,0c-.48-.16-.93-.35-1.39-.57-.04-.03-.12-.05-.16-.09h0c-.17-.07-.34-.17-.5-.25-.22-.12-.45-.23-.66-.37-.2-.12-.41-.25-.62-.4-.42-.25-.82-.55-1.19-.87-.2-.14-.38-.3-.56-.47s-.36-.34-.54-.52c-.36-.34-.7-.7-1.01-1.08-.17-.18-.31-.38-.46-.57-.46-.58-.87-1.21-1.22-1.87-.14-.21-.25-.44-.35-.66-.22-.45-.44-.9-.61-1.37-.1-.23-.18-.48-.24-.72-.08-.24-.16-.48-.22-.72-.08-.27-.15-.52-.2-.8-.1-.49-.18-.98-.24-1.48-.02-.24-.05-.51-.06-.75v-.16s-.01-.07-.01-.12v-.12c-.01-.14-.01-.28-.03-.41,0-.37,0-.73.03-1.08,0-.17.01-.33.03-.5.04-.59.14-1.18.25-1.77.06-.31.14-.64.23-.94.04-.17.09-.35.14-.52.06-.23.15-.47.23-.71.05-.15.13-.31.19-.47.09-.24.19-.48.31-.73.13-.29.28-.57.41-.84.03-.05.05-.11.08-.15.13-.23.28-.47.4-.7.11-.15.19-.29.29-.44.14-.21.3-.44.47-.66.22-.3.45-.58.69-.86.22-.28.47-.52.7-.77.31-.31.62-.59.92-.86.17-.15.36-.3.54-.44.07-.09.17-.15.24-.2.27-.19.52-.39.8-.56.28-.19.56-.36.86-.53.34-.19.68-.38,1.03-.54.07-.04.15-.09.23-.12.07-.03.16-.06.23-.1.22-.11.45-.2.67-.28.01-.01.02-.01.05-.02.22-.1.46-.17.69-.23.23-.1.48-.16.73-.22.13-.04.25-.09.38-.11h.02c.1-.04.21-.06.33-.07.25-.07.51-.11.76-.15.25-.05.51-.1.76-.12.52-.06,1.03-.1,1.56-.11.66-.01,1.28.01,1.91.1.27.02.54.06.81.11l.19.03s.06.01.1.02c.02,0,.05.02.08.02.04,0,.07,0,.11.01s.07.01.11.02c.06.01.14.03.21.04.31.06.63.15.93.23.19.04.4.11.59.19.25.06.51.15.74.26.06.03.14.05.2.07.07.02.14.05.2.09.12.04.22.09.33.14.34.15.68.31.99.49.33.17.65.35.96.54.3.18.59.39.9.6.3.22.58.45.86.68s.54.47.81.72c.11.1.19.2.29.29.11.1.18.2.28.29.03.03.05.04.06.06.12.13.22.22.3.34.16.16.29.33.4.49.98,1.2,1.77,2.55,2.35,4,.12.3.23.59.33.91.1.29.18.58.25.88.05.18.1.35.14.53.08.37.15.74.2,1.13.04.23.06.5.1.74.05.41.06.85.07,1.27,0,.21,0,.41-.01.64v.16c0,.07,0,.17-.01.24-.02.22-.03.46-.04.68-.02.2-.05.39-.07.61-.03.24-.07.49-.12.74-.04.24-.1.48-.16.72-.05.22-.11.45-.17.66-.2.74-.46,1.44-.78,2.13-.08.2-.18.39-.27.58-.12.25-.25.49-.39.72-.11.19-.22.39-.34.58-.15.22-.29.44-.44.64-.14.21-.27.39-.42.58-.15.2-.3.38-.46.56-.15.18-.29.35-.45.51v.02Z" fill="url(#linear-gradient36)"/>
              <g opacity=".25">
                <path d="M100.57,130.2c-.41-7.77-5.97-14.13-13.25-15.85-.52-.13-1.05-.23-1.6-.31-.86-.12-1.74-.17-2.64-.16-1.01.01-1.99.12-2.93.32h-.01c-.57.1-1.14.23-1.68.38-7.05,2.1-12.21,8.54-12.36,16.18-.02.22-.02.45,0,.66.12,6.72,4.04,12.46,9.69,15.22.36.18.74.35,1.14.51h.01c2.06.84,4.32,1.27,6.68,1.24,2.39-.04,4.64-.56,6.7-1.48.39-.17.79-.36,1.17-.57h.01c5.5-2.96,9.21-8.81,9.11-15.48,0-.22,0-.45-.03-.67h-.01ZM98.88,131.6v.16c0,.07,0,.17-.01.24-.02.22-.03.46-.04.68-.02.2-.05.39-.07.61-.03.24-.07.49-.12.74-.04.24-.1.48-.16.72-.05.22-.11.45-.17.66-.2.74-.46,1.44-.78,2.13-.08.2-.18.39-.27.58-.12.25-.25.49-.39.72-.11.19-.22.39-.34.58-.15.22-.29.44-.44.64-.14.21-.27.39-.42.58-.15.2-.3.38-.46.56-.15.18-.29.35-.45.51-.28.32-.57.62-.88.89-.14.13-.27.24-.4.36-.61.53-1.25,1-1.94,1.43-.21.13-.41.27-.64.38-.08.04-.16.09-.23.14h-.02c-.07.03-.14.07-.2.11s-.14.07-.21.11c-.04.02-.1.05-.13.06-.35.17-.71.33-1.07.47h-.01c-.05.03-.1.05-.16.06-.23.1-.48.18-.71.25-.25.09-.49.15-.73.21-.03.02-.05.03-.07.03-.48.13-.94.22-1.42.3-.3.06-.62.11-.92.13-.48.05-.94.08-1.41.1h-.28c-.47,0-.92-.03-1.38-.06-.05,0-.12,0-.17,0-.37-.04-.74-.1-1.09-.16-.14,0-.29-.04-.42-.09-.27-.03-.53-.1-.79-.18-.44-.11-.85-.23-1.26-.37-.03,0-.05-.02-.08-.04h-.01s-.02,0-.03,0c-.48-.16-.93-.35-1.39-.57-.04-.03-.12-.05-.16-.09h0c-.17-.07-.34-.17-.5-.25-.22-.12-.45-.23-.66-.37-.2-.12-.41-.25-.62-.4-.42-.25-.82-.55-1.19-.87-.2-.14-.38-.3-.56-.47s-.36-.34-.54-.52c-.36-.34-.7-.7-1.01-1.08-.17-.18-.31-.38-.46-.57-.46-.58-.87-1.21-1.22-1.87-.14-.21-.25-.44-.35-.66-.22-.45-.44-.9-.61-1.37-.1-.23-.18-.48-.24-.72-.08-.24-.16-.48-.22-.72-.08-.27-.15-.52-.2-.8-.1-.49-.18-.98-.24-1.48-.02-.24-.05-.51-.06-.75v-.16s-.01-.07-.01-.12v-.12c-.01-.14-.01-.28-.03-.41,0-.37,0-.73.03-1.08,0-.17.01-.33.03-.5.04-.59.14-1.18.25-1.77.06-.31.14-.64.23-.94.04-.17.09-.35.14-.52.06-.23.15-.47.23-.71.05-.15.13-.31.19-.47.09-.24.19-.48.31-.73.13-.29.28-.57.41-.84.03-.05.05-.11.08-.15.13-.23.28-.47.4-.7.11-.15.19-.29.29-.44.14-.21.3-.44.47-.66.22-.3.45-.58.69-.86.22-.28.47-.52.7-.77.31-.31.62-.59.92-.86.17-.15.36-.3.54-.44.07-.09.17-.15.24-.2.27-.19.52-.39.8-.56.28-.19.56-.36.86-.53.34-.19.68-.38,1.03-.54.07-.04.15-.09.23-.12.84-.44,1.73-.79,2.66-1.05h.01c1.11-.3,2.3-.47,3.52-.48,1.09-.01,2.17.08,3.2.31.97.21,1.91.51,2.79.92.07.02.14.05.2.09.12.04.22.09.33.14.34.15.68.31.99.49.33.17.65.35.96.54.3.18.59.39.9.6.3.22.58.45.86.68s.54.47.81.72c.11.1.19.2.29.29.11.1.18.2.28.29.03.03.05.04.06.06.12.13.22.22.3.34.16.16.29.33.4.49.98,1.2,1.77,2.55,2.35,4,.12.3.23.59.33.91.1.29.18.58.25.88.05.18.1.35.14.53.08.37.15.74.2,1.13.04.23.06.5.1.74.05.41.06.85.07,1.27,0,.21,0,.41-.01.64h-.01Z" fill="#8d5500"/>
              </g>
              <path d="M87.77,112.24c.04,2.72-2.13,4.98-4.85,5.02s-4.98-2.14-5.02-4.86c0-.09,0-.2.01-.29.1-2.6,2.22-4.69,4.85-4.73s4.82,1.98,4.99,4.59c.02.08.02.18.02.27h0Z" fill="url(#linear-gradient37)"/>
              <path d="M87.77,112.24c0,.19,0,.37-.03.55-.26-2.52-2.39-4.46-4.97-4.41s-4.67,2.04-4.83,4.57c-.03-.18-.04-.36-.05-.55,0-.09,0-.2.01-.29.1-2.6,2.22-4.69,4.85-4.73s4.82,1.98,4.99,4.59c.02.08.02.18.02.27h.01Z" fill="url(#linear-gradient38)"/>
              <g opacity=".21">
                <path d="M87.77,112.24c.04,2.72-2.13,4.98-4.85,5.02s-4.98-2.14-5.02-4.86c0-.09,0-.2.01-.29.9,1.64,2.8,2.74,4.97,2.71,2.15-.03,4.01-1.19,4.87-2.85.02.08.02.18.02.27Z" fill="#8d5500"/>
              </g>
            </g>
            <path d="M90.4,160.17c-.18.22-.38.42-.59.62-2.94,2.73-7.73,2.92-11.05.59-.32-.23-.63-.47-.93-.76,2.23-1.35,4.39-2.73,6.43-4.16.04.02.07.05.1.07.03-.03.06-.05.09-.08.35.26.7.52,1.05.8,0,0,.02,0,.03.02,1.56.99,3.19,1.95,4.86,2.9h.01Z" fill="#8d5500" isolation="isolate" opacity=".28"/>
            <g>
              <polygon points="84.76 427.54 85.94 430 87.21 429.97 88.44 427.5 84.76 427.54" fill="url(#linear-gradient39)"/>
              <polygon points="94.07 420.62 89.94 427.72 83.24 427.83 78.89 420.87 86.25 420.65 94.07 420.62" fill="url(#linear-gradient40)"/>
              <polygon points="78.85 418.6 78.89 420.87 94.07 420.62 94.03 418.44 78.85 418.6" fill="url(#linear-gradient41)"/>
            </g>
            <g>
              <ellipse cx="86.21" cy="316.92" rx="11.95" ry="56.25" transform="translate(-5.13 1.44) rotate(-.93)" fill="url(#radial-gradient3)" isolation="isolate" mix-blend-mode="screen"/>
              <path d="M93.67,332.14c-15.11,18.98-30.69,27.55-34.8,19.14-4.12-8.4,4.79-30.6,19.9-49.57,15.11-18.98,30.69-27.55,34.8-19.14,4.12,8.4-4.79,30.6-19.9,49.57Z" fill="url(#radial-gradient4)" isolation="isolate" mix-blend-mode="screen"/>
              <path d="M93.32,301.65c15.54,18.85,24.96,40.97,21.04,49.41s-19.7-.01-35.24-18.86c-15.54-18.85-24.96-40.97-21.04-49.41s19.7.01,35.24,18.86h0Z" fill="url(#radial-gradient5)" isolation="isolate" mix-blend-mode="screen"/>
            </g>
            <g>
              <ellipse cx="46.74" cy="317.56" rx="7.32" ry="34.44" transform="translate(-5.15 .8) rotate(-.93)" fill="url(#radial-gradient6)" isolation="isolate" mix-blend-mode="screen"/>
              <path d="M51.29,326.88c-9.25,11.62-18.79,16.87-21.31,11.72-2.52-5.15,2.94-18.74,12.19-30.36,9.25-11.62,18.79-16.87,21.31-11.72,2.52,5.15-2.94,18.74-12.19,30.36Z" fill="url(#radial-gradient7)" isolation="isolate" mix-blend-mode="screen"/>
              <path d="M51.08,308.21c9.52,11.54,15.28,25.09,12.88,30.25-2.4,5.17-12.06,0-21.58-11.55-9.52-11.54-15.28-25.09-12.88-30.25,2.4-5.17,12.06,0,21.58,11.55Z" fill="url(#radial-gradient8)" isolation="isolate" mix-blend-mode="screen"/>
            </g>
            <g>
              <ellipse cx="123.95" cy="316.31" rx="7.32" ry="34.44" transform="translate(-5.12 2.05) rotate(-.93)" fill="url(#radial-gradient9)" isolation="isolate" mix-blend-mode="screen"/>
              <path d="M128.51,325.63c-9.25,11.62-18.79,16.87-21.31,11.72s2.94-18.74,12.19-30.36c9.25-11.62,18.79-16.87,21.31-11.72s-2.94,18.74-12.19,30.36Z" fill="url(#radial-gradient10)" isolation="isolate" mix-blend-mode="screen"/>
              <path d="M128.29,306.96c9.52,11.54,15.28,25.09,12.88,30.25-2.4,5.17-12.06,0-21.58-11.55-9.52-11.54-15.28-25.09-12.88-30.25,2.4-5.17,12.06,0,21.58,11.55Z" fill="url(#radial-gradient11)" isolation="isolate" mix-blend-mode="screen"/>
            </g>
            <g clip-path="url(#clippath)">
              <g>
                <line x1="87.49" y1="314.22" x2="97.65" y2="331.26" fill="none"/>
                <circle cx="87.49" cy="314.22" r="16.54" fill="none"/>
                <circle cx="87.49" cy="314.22" r="19.85" fill="none"/>
                <polyline points="87.49 314.22 80.16 373.86 87.49 314.22 94.82 254.57 87.49 314.22 27.84 306.89 87.49 314.22 147.14 321.55 87.49 314.22 110.41 400.4 87.49 314.22 64.57 228.03 87.49 314.22 1.3 337.14 87.49 314.22 173.67 291.3 87.49 314.22 98.35 322.17 87.49 314.22 76.63 306.26 87.49 314.22 79.53 325.07 87.49 314.22 95.44 303.36 87.49 314.22 117.35 341.24 87.49 314.22 57.62 287.19 87.49 314.22 60.46 344.08 87.49 314.22 114.51 284.35 87.49 314.22 93.73 342.95 87.49 314.22 81.25 285.48 87.49 314.22 58.76 320.45 87.49 314.22 116.22 307.98 87.49 314.22 78.41 366.44 87.49 314.22 96.57 261.99 87.49 314.22 35.26 305.14 87.49 314.22 139.71 323.3 87.49 314.22 75.36 401.63 87.49 314.22 99.61 226.8 87.49 314.22 .07 302.09 87.49 314.22 174.9 326.34 87.49 314.22 124.84 361.43 87.49 314.22 50.13 267 87.49 314.22 40.27 351.57 87.49 314.22 134.7 276.86 87.49 314.22 87.65 333.3 87.49 314.22 87.33 295.13 87.49 314.22 68.4 314.37 87.49 314.22 106.57 314.06 87.49 314.22 95.54 337.22 87.49 314.22 79.43 291.21 87.49 314.22 64.48 322.27 87.49 314.22 110.49 306.16 87.49 314.22 137.65 383.19 87.49 314.22 37.32 245.24 87.49 314.22 18.51 364.38 87.49 314.22 156.46 264.05 87.49 314.22 91.58 318.18 87.49 314.22 83.4 310.26 87.49 314.22 83.53 318.31 87.49 314.22 91.45 310.12 87.49 314.22 88.7 318.01 87.49 314.22 86.27 310.42 87.49 314.22 83.69 315.43 87.49 314.22 91.29 313 87.49 314.22 88.04 325.74 87.49 314.22 86.94 302.69 87.49 314.22 75.97 314.77 87.49 314.22 99.01 313.66 87.49 314.22 103.33 329.84 87.49 314.22 71.64 298.59 87.49 314.22 71.86 330.06 87.49 314.22 103.11 298.37" fill="none"/>
                <circle cx="87.5" cy="314.22" r="39.69" fill="url(#radial-gradient12)" isolation="isolate" mix-blend-mode="screen" opacity=".15"/>
                <circle cx="87.49" cy="314.22" r="19.85" fill="url(#radial-gradient13)" isolation="isolate" mix-blend-mode="screen" opacity=".5"/>
                <circle cx="87.49" cy="314.22" r="16.54" fill="url(#radial-gradient14)" isolation="isolate" mix-blend-mode="screen"/>
                <polyline points="87.49 314.22 80.16 373.86 87.49 314.22 94.82 254.57 87.49 314.22 27.84 306.89 87.49 314.22 147.14 321.55 87.49 314.22 110.41 400.4 87.49 314.22 64.57 228.03 87.49 314.22 1.3 337.14 87.49 314.22 173.67 291.3 87.49 314.22 98.35 322.17 87.49 314.22 76.63 306.26 87.49 314.22 79.53 325.07 87.49 314.22 95.44 303.36 87.49 314.22 117.35 341.24 87.49 314.22 57.62 287.19 87.49 314.22 60.46 344.08 87.49 314.22 114.51 284.35 87.49 314.22 93.73 342.95 87.49 314.22 81.25 285.48 87.49 314.22 58.76 320.45 87.49 314.22 116.22 307.98 87.49 314.22 78.41 366.44 87.49 314.22 96.57 261.99 87.49 314.22 35.26 305.14 87.49 314.22 139.71 323.3 87.49 314.22 75.36 401.63 87.49 314.22 99.61 226.8 87.49 314.22 .07 302.09 87.49 314.22 174.9 326.34 87.49 314.22 124.84 361.43 87.49 314.22 50.13 267 87.49 314.22 40.27 351.57 87.49 314.22 134.7 276.86 87.49 314.22 87.65 333.3 87.49 314.22 87.33 295.13 87.49 314.22 68.4 314.37 87.49 314.22 106.57 314.06 87.49 314.22 95.54 337.22 87.49 314.22 79.43 291.21 87.49 314.22 64.48 322.27 87.49 314.22 110.49 306.16 87.49 314.22 137.65 383.19 87.49 314.22 37.32 245.24 87.49 314.22 18.51 364.38 87.49 314.22 156.46 264.05 87.49 314.22 91.58 318.18 87.49 314.22 83.4 310.26 87.49 314.22 83.53 318.31 87.49 314.22 91.45 310.12 87.49 314.22 88.7 318.01 87.49 314.22 86.27 310.42 87.49 314.22 83.69 315.43 87.49 314.22 91.29 313 87.49 314.22 88.04 325.74 87.49 314.22 86.94 302.69 87.49 314.22 75.97 314.77 87.49 314.22 99.01 313.66 87.49 314.22 103.33 329.84 87.49 314.22 71.64 298.59 87.49 314.22 71.86 330.06 87.49 314.22 103.11 298.37" fill="none" isolation="isolate" mix-blend-mode="screen" opacity=".03" stroke="#fff" stroke-miterlimit="10" stroke-width="1.06"/>
              </g>
            </g>
            <g clip-path="url(#clippath-1)">
              <g>
                <line x1="48.09" y1="316.61" x2="53.76" y2="333.73" fill="none"/>
                <ellipse cx="48.09" cy="316.61" rx="9.02" ry="16.54" transform="translate(-5.13 .82) rotate(-.93)" fill="none"/>
                <ellipse cx="48.09" cy="316.61" rx="10.82" ry="19.85" transform="translate(-5.13 .82) rotate(-.93)" fill="none"/>
                <polyline points="48.09 316.61 44.53 376.2 48.09 316.61 51.64 257.02 48.09 316.61 15.5 308.84 48.09 316.61 80.67 324.38 48.09 316.61 61.22 402.95 48.09 316.61 34.95 230.27 48.09 316.61 1.25 338.89 48.09 316.61 94.92 294.33 48.09 316.61 54.07 324.64 48.09 316.61 42.1 308.58 48.09 316.61 43.83 327.41 48.09 316.61 52.34 305.81 48.09 316.61 64.57 343.85 48.09 316.61 31.6 289.37 48.09 316.61 33.57 346.27 48.09 316.61 62.61 286.95 48.09 316.61 51.7 345.38 48.09 316.61 44.47 287.84 48.09 316.61 32.46 322.64 48.09 316.61 63.71 310.58 48.09 316.61 43.52 368.77 48.09 316.61 52.65 264.45 48.09 316.61 19.53 307.15 48.09 316.61 76.64 326.07 48.09 316.61 42.12 403.92 48.09 316.61 54.06 229.3 48.09 316.61 .32 303.84 48.09 316.61 95.85 329.38 48.09 316.61 68.81 364.09 48.09 316.61 27.36 269.13 48.09 316.61 22.61 353.61 48.09 316.61 73.56 279.61 48.09 316.61 48.31 335.69 48.09 316.61 47.86 297.53 48.09 316.61 37.68 316.63 48.09 316.61 58.49 316.59 48.09 316.61 52.65 339.67 48.09 316.61 43.52 293.55 48.09 316.61 35.6 324.49 48.09 316.61 60.57 308.73 48.09 316.61 75.96 385.95 48.09 316.61 20.22 247.27 48.09 316.61 10.84 366.26 48.09 316.61 85.34 266.96 48.09 316.61 50.35 320.6 48.09 316.61 45.83 312.62 48.09 316.61 45.96 320.67 48.09 316.61 50.22 312.55 48.09 316.61 48.78 320.42 48.09 316.61 47.4 312.8 48.09 316.61 46.02 317.8 48.09 316.61 50.15 315.42 48.09 316.61 48.47 328.13 48.09 316.61 47.7 305.09 48.09 316.61 41.81 317.08 48.09 316.61 54.37 316.14 48.09 316.61 56.84 332.35 48.09 316.61 39.33 300.87 48.09 316.61 39.68 332.34 48.09 316.61 56.49 300.88" fill="none"/>
                <ellipse cx="48.09" cy="316.61" rx="21.64" ry="39.69" transform="translate(-5.13 .82) rotate(-.93)" fill="url(#radial-gradient15)" isolation="isolate" mix-blend-mode="screen" opacity=".15"/>
                <ellipse cx="48.09" cy="316.61" rx="10.82" ry="19.85" transform="translate(-5.13 .82) rotate(-.93)" fill="url(#radial-gradient16)" isolation="isolate" mix-blend-mode="screen" opacity=".5"/>
                <ellipse cx="48.09" cy="316.61" rx="9.02" ry="16.54" transform="translate(-5.13 .82) rotate(-.93)" fill="url(#radial-gradient17)" isolation="isolate" mix-blend-mode="screen"/>
                <polyline points="48.09 316.61 44.53 376.2 48.09 316.61 51.64 257.02 48.09 316.61 15.5 308.84 48.09 316.61 80.67 324.38 48.09 316.61 61.22 402.95 48.09 316.61 34.95 230.27 48.09 316.61 1.25 338.89 48.09 316.61 94.92 294.33 48.09 316.61 54.07 324.64 48.09 316.61 42.1 308.58 48.09 316.61 43.83 327.41 48.09 316.61 52.34 305.81 48.09 316.61 64.57 343.85 48.09 316.61 31.6 289.37 48.09 316.61 33.57 346.27 48.09 316.61 62.61 286.95 48.09 316.61 51.7 345.38 48.09 316.61 44.47 287.84 48.09 316.61 32.46 322.64 48.09 316.61 63.71 310.58 48.09 316.61 43.52 368.77 48.09 316.61 52.65 264.45 48.09 316.61 19.53 307.15 48.09 316.61 76.64 326.07 48.09 316.61 42.12 403.92 48.09 316.61 54.06 229.3 48.09 316.61 .32 303.84 48.09 316.61 95.85 329.38 48.09 316.61 68.81 364.09 48.09 316.61 27.36 269.13 48.09 316.61 22.61 353.61 48.09 316.61 73.56 279.61 48.09 316.61 48.31 335.69 48.09 316.61 47.86 297.53 48.09 316.61 37.68 316.63 48.09 316.61 58.49 316.59 48.09 316.61 52.65 339.67 48.09 316.61 43.52 293.55 48.09 316.61 35.6 324.49 48.09 316.61 60.57 308.73 48.09 316.61 75.96 385.95 48.09 316.61 20.22 247.27 48.09 316.61 10.84 366.26 48.09 316.61 85.34 266.96 48.09 316.61 50.35 320.6 48.09 316.61 45.83 312.62 48.09 316.61 45.96 320.67 48.09 316.61 50.22 312.55 48.09 316.61 48.78 320.42 48.09 316.61 47.4 312.8 48.09 316.61 46.02 317.8 48.09 316.61 50.15 315.42 48.09 316.61 48.47 328.13 48.09 316.61 47.7 305.09 48.09 316.61 41.81 317.08 48.09 316.61 54.37 316.14 48.09 316.61 56.84 332.35 48.09 316.61 39.33 300.87 48.09 316.61 39.68 332.34 48.09 316.61 56.49 300.88" fill="none" isolation="isolate" mix-blend-mode="screen" opacity=".03" stroke="#fff" stroke-miterlimit="10" stroke-width=".78"/>
              </g>
            </g>
            <g clip-path="url(#clippath-2)">
              <g>
                <line x1="127.05" y1="314.73" x2="121.93" y2="332.02" fill="none"/>
                <ellipse cx="127.05" cy="314.73" rx="9.02" ry="16.54" transform="translate(-5.09 2.1) rotate(-.93)" fill="none"/>
                <ellipse cx="127.05" cy="314.73" rx="10.82" ry="19.85" transform="translate(-5.09 2.1) rotate(-.93)" fill="none"/>
                <polyline points="127.05 314.73 132.54 374.17 127.05 314.73 121.56 255.28 127.05 314.73 159.36 305.9 127.05 314.73 94.73 323.55 127.05 314.73 116.72 401.45 127.05 314.73 137.38 228 127.05 314.73 174.58 335.48 127.05 314.73 79.51 293.97 127.05 314.73 121.33 322.95 127.05 314.73 132.76 306.5 127.05 314.73 131.65 325.38 127.05 314.73 122.44 304.07 127.05 314.73 111.45 342.49 127.05 314.73 142.64 286.96 127.05 314.73 142.52 343.9 127.05 314.73 111.57 285.55 127.05 314.73 124.37 343.6 127.05 314.73 129.73 285.85 127.05 314.73 142.86 320.24 127.05 314.73 111.24 309.21 127.05 314.73 133.3 366.71 127.05 314.73 120.79 262.75 127.05 314.73 155.28 304.34 127.05 314.73 98.82 325.11 127.05 314.73 135.85 401.8 127.05 314.73 118.25 227.65 127.05 314.73 174.37 300.41 127.05 314.73 79.72 329.04 127.05 314.73 107.87 362.85 127.05 314.73 146.22 266.6 127.05 314.73 153.71 350.88 127.05 314.73 100.39 278.57 127.05 314.73 127.44 333.8 127.05 314.73 126.66 295.65 127.05 314.73 137.45 314.41 127.05 314.73 116.64 315.04 127.05 314.73 123.24 337.92 127.05 314.73 130.86 291.53 127.05 314.73 139.78 322.2 127.05 314.73 114.31 307.25 127.05 314.73 101.44 384.93 127.05 314.73 152.65 244.52 127.05 314.73 165.89 363.14 127.05 314.73 88.21 266.31 127.05 314.73 124.92 318.79 127.05 314.73 129.18 310.66 127.05 314.73 129.31 318.72 127.05 314.73 124.79 310.74 127.05 314.73 126.48 318.55 127.05 314.73 127.61 310.9 127.05 314.73 129.15 315.84 127.05 314.73 124.95 313.61 127.05 314.73 127.03 326.26 127.05 314.73 127.06 303.2 127.05 314.73 133.34 314.99 127.05 314.73 120.75 314.46 127.05 314.73 118.8 330.74 127.05 314.73 135.29 298.71 127.05 314.73 135.96 330.17 127.05 314.73 118.14 299.28" fill="none"/>
                <ellipse cx="127.05" cy="314.73" rx="21.64" ry="39.69" transform="translate(-5.09 2.1) rotate(-.93)" fill="url(#radial-gradient18)" isolation="isolate" mix-blend-mode="screen" opacity=".15"/>
                <ellipse cx="127.05" cy="314.73" rx="10.82" ry="19.85" transform="translate(-5.09 2.1) rotate(-.93)" fill="url(#radial-gradient19)" isolation="isolate" mix-blend-mode="screen" opacity=".5"/>
                <ellipse cx="127.05" cy="314.73" rx="9.02" ry="16.54" transform="translate(-5.09 2.1) rotate(-.93)" fill="url(#radial-gradient20)" isolation="isolate" mix-blend-mode="screen"/>
                <polyline points="127.05 314.73 132.54 374.17 127.05 314.73 121.56 255.28 127.05 314.73 159.36 305.9 127.05 314.73 94.73 323.55 127.05 314.73 116.72 401.45 127.05 314.73 137.38 228 127.05 314.73 174.58 335.48 127.05 314.73 79.51 293.97 127.05 314.73 121.33 322.95 127.05 314.73 132.76 306.5 127.05 314.73 131.65 325.38 127.05 314.73 122.44 304.07 127.05 314.73 111.45 342.49 127.05 314.73 142.64 286.96 127.05 314.73 142.52 343.9 127.05 314.73 111.57 285.55 127.05 314.73 124.37 343.6 127.05 314.73 129.73 285.85 127.05 314.73 142.86 320.24 127.05 314.73 111.24 309.21 127.05 314.73 133.3 366.71 127.05 314.73 120.79 262.75 127.05 314.73 155.28 304.34 127.05 314.73 98.82 325.11 127.05 314.73 135.85 401.8 127.05 314.73 118.25 227.65 127.05 314.73 174.37 300.41 127.05 314.73 79.72 329.04 127.05 314.73 107.87 362.85 127.05 314.73 146.22 266.6 127.05 314.73 153.71 350.88 127.05 314.73 100.39 278.57 127.05 314.73 127.44 333.8 127.05 314.73 126.66 295.65 127.05 314.73 137.45 314.41 127.05 314.73 116.64 315.04 127.05 314.73 123.24 337.92 127.05 314.73 130.86 291.53 127.05 314.73 139.78 322.2 127.05 314.73 114.31 307.25 127.05 314.73 101.44 384.93 127.05 314.73 152.65 244.52 127.05 314.73 165.89 363.14 127.05 314.73 88.21 266.31 127.05 314.73 124.92 318.79 127.05 314.73 129.18 310.66 127.05 314.73 129.31 318.72 127.05 314.73 124.79 310.74 127.05 314.73 126.48 318.55 127.05 314.73 127.61 310.9 127.05 314.73 129.15 315.84 127.05 314.73 124.95 313.61 127.05 314.73 127.03 326.26 127.05 314.73 127.06 303.2 127.05 314.73 133.34 314.99 127.05 314.73 120.75 314.46 127.05 314.73 118.8 330.74 127.05 314.73 135.29 298.71 127.05 314.73 135.96 330.17 127.05 314.73 118.14 299.28" fill="none" isolation="isolate" mix-blend-mode="screen" opacity=".03" stroke="#fff" stroke-miterlimit="10" stroke-width=".78"/>
              </g>
            </g>
            <path d="M92.41,151.06c.52,13.12-19.17,12.39-17.26-1.91,1.52-11.38,17.41-10.12,17.26,1.91Z" fill="url(#linear-gradient42)"/>
            <path d="M92.41,151.05c.02.39.01.76,0,1.13-1.04-10.73-15.74-11.44-17.2-.51-.03.27-.07.54-.09.8-.12-1.01-.11-2.12.05-3.33,1.52-11.38,17.41-10.12,17.25,1.91h-.01Z" fill="url(#linear-gradient43)"/>
            <path d="M92.41,151.05c.52,13.13-19.17,12.4-17.25-1.91.03-.24.07-.48.12-.7,2.28,8.77,15.11,8.74,16.86-.19.19.85.29,1.79.28,2.8h-.01Z" fill="#8d5500" isolation="isolate" opacity=".21"/>
          </g>
          <rect x="80.2" width="5.29" height="112.95" fill="url(#linear-gradient44)"/>
        </g>
      </g>
    </g>
  </g>
</svg>