<?xml version="1.0" encoding="UTF-8"?>
<svg id="Layer_2" xmlns="http://www.w3.org/2000/svg" version="1.1" xmlns:xlink="http://www.w3.org/1999/xlink" viewBox="0 0 112.7 414.24">
  <!-- Generator: Adobe Illustrator 29.6.1, SVG Export Plug-In . SVG Version: 2.1.1 Build 9)  -->
  <defs>
    <linearGradient id="linear-gradient" x1="57.7" y1="414.01" x2="51.94" y2="101.55" gradientTransform="translate(0 414) scale(1 -1)" gradientUnits="userSpaceOnUse">
      <stop offset="0" stop-color="#ffe276"/>
      <stop offset=".25" stop-color="#fcda6d"/>
      <stop offset=".64" stop-color="#f5c457"/>
      <stop offset="1" stop-color="#eeab3d"/>
    </linearGradient>
    <linearGradient id="linear-gradient1" x1="-3558.76" y1="-101.71" x2="-3557.56" y2="-162.36" gradientTransform="translate(1475.05 3631.64) rotate(69.18) scale(1 -1)" gradientUnits="userSpaceOnUse">
      <stop offset="0" stop-color="#ffd47d"/>
      <stop offset=".19" stop-color="#fccc74"/>
      <stop offset=".48" stop-color="#f6b65e"/>
      <stop offset=".84" stop-color="#eb9239"/>
      <stop offset="1" stop-color="#e68127"/>
    </linearGradient>
    <linearGradient id="linear-gradient2" x1="-3558.39" y1="-132.59" x2="-3540.08" y2="-132.59" gradientTransform="translate(1475.05 3631.64) rotate(69.18) scale(1 -1)" gradientUnits="userSpaceOnUse">
      <stop offset="0" stop-color="#ffd47d"/>
      <stop offset=".19" stop-color="#fccc74"/>
      <stop offset=".48" stop-color="#f6b65e"/>
      <stop offset=".84" stop-color="#eb9239"/>
      <stop offset="1" stop-color="#e68127"/>
    </linearGradient>
    <linearGradient id="linear-gradient3" x1="-3587.19" y1="-150.79" x2="-3580.71" y2="-132.16" gradientTransform="translate(1475.05 3631.64) rotate(69.18) scale(1 -1)" gradientUnits="userSpaceOnUse">
      <stop offset="0" stop-color="#ffd47d"/>
      <stop offset=".03" stop-color="#fed179"/>
      <stop offset=".46" stop-color="#f1a54d"/>
      <stop offset=".8" stop-color="#e98a31"/>
      <stop offset="1" stop-color="#e68127"/>
    </linearGradient>
    <linearGradient id="linear-gradient4" x1="-3592.47" y1="-176.87" x2="-3587.41" y2="-150.52" gradientTransform="translate(1475.05 3631.64) rotate(69.18) scale(1 -1)" gradientUnits="userSpaceOnUse">
      <stop offset="0" stop-color="#ffd47d"/>
      <stop offset=".18" stop-color="#fccd76"/>
      <stop offset=".45" stop-color="#f7ba62"/>
      <stop offset=".76" stop-color="#ee9c43"/>
      <stop offset="1" stop-color="#e68127"/>
    </linearGradient>
    <linearGradient id="linear-gradient5" x1="3433.28" y1="-150.69" x2="3439.76" y2="-132.06" gradientTransform="translate(1440.68 3541.24) rotate(-110.82)" gradientUnits="userSpaceOnUse">
      <stop offset="0" stop-color="#ffd47d"/>
      <stop offset=".03" stop-color="#fed179"/>
      <stop offset=".46" stop-color="#f1a54d"/>
      <stop offset=".8" stop-color="#e98a31"/>
      <stop offset="1" stop-color="#e68127"/>
    </linearGradient>
    <linearGradient id="linear-gradient6" x1="3427.97" y1="-176.82" x2="3433.03" y2="-150.48" gradientTransform="translate(1440.68 3541.24) rotate(-110.82)" gradientUnits="userSpaceOnUse">
      <stop offset="0" stop-color="#ffd47d"/>
      <stop offset=".18" stop-color="#fccd76"/>
      <stop offset=".45" stop-color="#f7ba62"/>
      <stop offset=".76" stop-color="#ee9c43"/>
      <stop offset="1" stop-color="#e68127"/>
    </linearGradient>
    <linearGradient id="linear-gradient7" x1="-3565.29" y1="-200.88" x2="-3580.61" y2="-180.69" gradientTransform="translate(1475.05 3631.64) rotate(69.18) scale(1 -1)" gradientUnits="userSpaceOnUse">
      <stop offset="0" stop-color="#ffd47d"/>
      <stop offset="1" stop-color="#e68127"/>
    </linearGradient>
    <linearGradient id="linear-gradient8" x1="-3577.25" y1="-185.27" x2="-3591.09" y2="-170.6" gradientTransform="translate(1475.05 3631.64) rotate(69.18) scale(1 -1)" gradientUnits="userSpaceOnUse">
      <stop offset="0" stop-color="#ffd47d"/>
      <stop offset=".72" stop-color="#ed9940"/>
      <stop offset="1" stop-color="#e68127"/>
    </linearGradient>
    <linearGradient id="linear-gradient9" x1="-3546.64" y1="-198.97" x2="-3536.44" y2="-177.59" gradientTransform="translate(1475.05 3631.64) rotate(69.18) scale(1 -1)" gradientUnits="userSpaceOnUse">
      <stop offset="0" stop-color="#ffd47d"/>
      <stop offset=".75" stop-color="#ec963d"/>
      <stop offset="1" stop-color="#e68127"/>
    </linearGradient>
    <linearGradient id="linear-gradient10" x1="3443.35" y1="-185.54" x2="3429.51" y2="-170.87" gradientTransform="translate(1440.68 3541.24) rotate(-110.82)" gradientUnits="userSpaceOnUse">
      <stop offset="0" stop-color="#ffd47d"/>
      <stop offset=".72" stop-color="#ed9940"/>
      <stop offset="1" stop-color="#e68127"/>
    </linearGradient>
  </defs>
  <g id="Layer_1-2">
    <g>
      <rect x="51.37" width="6.9" height="312.44" fill="url(#linear-gradient)"/>
      <g>
        <polygon points="86.33 372.38 60.12 362.75 74.32 338.48 112.7 343.05 86.33 372.38" fill="url(#linear-gradient1)"/>
        <polygon points="86.33 372.38 60.12 362.75 112.7 343.05 86.33 372.38" fill="url(#linear-gradient2)"/>
        <path d="M60.12,362.75l-21.14-23.68h0l15.48-37.15.12.22,19.73,36.33-14.19,24.28h0Z" fill="url(#linear-gradient3)"/>
        <path d="M60.12,362.75l-21.14-23.68h0l15.48-37.15.12.22,5.54,60.61Z" fill="url(#linear-gradient4)"/>
        <path d="M60.07,362.71l-.33,31.04h0l36.25,17.47-.05-.24-9.4-40.26-26.47-8h0Z" fill="url(#linear-gradient5)"/>
        <path d="M60.07,362.71l-.33,31.04h0l36.25,17.47-.05-.24-35.87-48.27h0Z" fill="url(#linear-gradient6)"/>
        <path d="M60.12,362.75l-30.36,11.13L0,346.37l38.98-7.3h0l21.14,23.68Z" fill="url(#linear-gradient7)"/>
        <path d="M0,346.37l38.98-7.3h0l21.14,23.68L0,346.37Z" fill="url(#linear-gradient8)"/>
        <path d="M60.08,362.75l-30.35,11.15-3.95,40.34,33.98-20.45h0l.32-31.04h0Z" fill="url(#linear-gradient9)"/>
        <path d="M25.77,414.24l33.98-20.45h0l.32-31.04-34.31,51.49h.01Z" fill="url(#linear-gradient10)"/>
      </g>
    </g>
  </g>
</svg>